<?xml version="1.0" standalone="no"?> <!DOCTYPE svg PUBLIC "-//W3C//DTD SVG 1.0//EN" "http://www.w3.org/TR/2001/REC-SVG-20010904/DTD/svg10.dtd" > <svg xmlns="http://www.w3.org/2000/svg" width="100%" height="100%">
<defs >
<font id="metaseriflfbookitalic" horiz-adv-x="964" ><font-face
    font-family="MetaSerifLf-Book"
    units-per-em="2048"
    panose-1="2 0 5 0 0 0 0 2 0 4"
    ascent="1542"
    descent="-436"
    alphabetic="0" />
<missing-glyph horiz-adv-x="1007" d="M82 0V1411H924V0H82ZM184 102H821V1309H184V102Z" />
<glyph unicode=" " glyph-name="space" horiz-adv-x="1024" />
<glyph unicode="," glyph-name="comma" horiz-adv-x="454" d="M373 217Q418 164 418 86Q418 21 389 -39Q358 -100 311 -145Q267 -191 203 -225Q136 -261 76 -279L41 -219Q127 -187 188 -137Q246 -91 246 -45Q246 -13 227 -4Q224 -2 209 5T184 18Q117 49 117 131Q117
196 156 231Q192 268 256 268Q328 268 373 217Z" />
<glyph unicode="-" glyph-name="hyphen" horiz-adv-x="591" d="M492 481H76L102 627H518L492 481Z" />
<glyph unicode="." glyph-name="period" horiz-adv-x="409" d="M309 227Q350 184 350 121T309 14Q269 -29 205 -29T100 14Q59 60 59 121Q59 183 100 227Q140 270 205 270T309 227Z" />
<glyph unicode="0" glyph-name="zero" horiz-adv-x="1187" d="M1022 1241Q1130 1112 1130 877Q1130 686 1085 528Q1041 369 954 242Q873 118 750 45Q626 -29 477 -29Q283 -29 170 102Q57 230 57 477Q57 639 100 803Q144 963 227 1090Q310 1215 434 1292Q556 1370
715 1370Q911 1370 1022 1241ZM311 176Q366 68 500 68Q574 68 633 104Q690 137 737 199Q789 266 825 354Q862 451 885 537Q909 645 918 723Q928 825 928 887Q928 1074 872 1174Q818 1272 694 1272Q618 1272 559 1233Q502 1197 444 1126Q397 1065 365 991Q325 910
303 829Q277 737 266 653Q254 564 254 477Q254 281 311 176Z" />
<glyph unicode="1" glyph-name="one" horiz-adv-x="739" d="M692 1346L453 221Q448 193 446 188Q444 178 444 156Q444 133 455 115Q465 96 487 88Q510 79 543 76Q575 73 629 70L614 0H12L27 70Q49 71 83 74T127 78Q169 81 197 96Q225 112 242 139Q256 166 268
223L465 1157Q381 1118 338 1104Q295 1087 205 1059L193 1126L573 1346H692Z" />
<glyph unicode="2" glyph-name="two" horiz-adv-x="1071" d="M428 1313Q537 1366 666 1366Q833 1366 928 1284Q1024 1200 1024 1051Q1024 945 983 852Q939 755 864 668Q781 570 682 485L442 285L274 150H918L862 0H39L57 94L436 426Q537 513 602 582Q676 659 723
729Q771 797 797 877Q821 950 821 1034Q821 1127 766 1182T612 1237Q510 1237 430 1196Q348 1151 295 1098L236 1161Q318 1260 428 1313Z" />
<glyph unicode="3" glyph-name="three" horiz-adv-x="1079" d="M827 1143T776 1188T627 1233Q532 1233 457 1198Q382 1161 313 1104L254 1171Q338 1260 451 1313Q554 1364 674 1364Q752 1364 817 1346Q883 1326 928 1290Q975 1252 1001 1196Q1028 1141 1028 1063Q1028
1008 1006 950Q985 899 942 846Q897 794 842 758Q792 723 711 694Q826 670 891 608Q954 545 954 420Q954 300 895 211Q835 117 741 57Q649 -3 526 -35Q406 -68 285 -68Q229 -68 207 -66Q188 -64 145 -59Q125 -57 92 -49Q57 -40 43 -35L20 51Q56 44 125 37Q177 31
250 31Q353 31 438 57Q527 82 598 135Q666 188 709 264Q750 344 750 449Q750 564 678 604Q610 643 475 643H432Q425 642 408 641T383 639L401 745Q451 739 516 739Q584 739 645 764Q700 784 743 827Q784 868 805 926Q827 987 827 1051Q827 1143 776 1188Z" />
<glyph unicode="4" glyph-name="four" horiz-adv-x="1054" d="M543 -68L629 336H8L27 422L678 1350H879L178 436H651Q683 587 739 739Q800 899 854 1001L967 1022L842 436H1014L991 336H819L741 -29L543 -68Z" />
<glyph unicode="5" glyph-name="five" horiz-adv-x="1126" d="M913 600Q938 543 938 465Q938 330 885 227Q828 123 741 61Q654 -2 537 -35T297 -68Q219 -68 152 -55Q90 -43 41 -25L23 70Q82 51 133 43Q198 33 264 33Q358 33 449 55Q535 78 598 127Q662 176 698
252Q735 327 735 434Q735 664 520 664Q449 664 379 651Q310 635 250 614L440 1335H1094L1032 1182H520L406 752Q436 760 498 772Q540 778 598 778Q674 778 733 758Q802 733 842 698Q885 661 913 600Z" />
<glyph unicode="6" glyph-name="six" horiz-adv-x="1056" d="M993 1434L1008 1350Q725 1238 549 1077Q370 917 274 698Q327 751 436 795Q538 831 645 831Q709 831 770 809Q826 785 868 741Q913 691 932 635Q954 567 954 496Q954 379 913 283Q875 189 805 119Q737
51 643 10Q552 -29 451 -29Q259 -29 147 86Q35 199 35 416Q35 620 115 780Q193 940 328 1069Q464 1199 633 1284Q820 1380 993 1434ZM729 311Q752 392 752 475Q752 707 565 707Q532 707 496 700Q452 694 412 682Q354 662 326 647Q277 624 246 600Q234 561 225 506Q217
457 217 393Q217 334 229 276Q240 217 266 172Q294 126 340 98Q388 70 453 70Q517 70 571 100Q627 129 668 182Q709 237 729 311Z" />
<glyph unicode="7" glyph-name="seven" horiz-adv-x="1030" d="M1024 1333L969 1202Q856 1086 760 944Q665 805 575 643Q496 501 412 315Q333 145 266 -16L39 -70Q119 108 201 258Q276 402 393 592Q511 779 608 907Q723 1063 829 1180H150L207 1333H1024Z" />
<glyph unicode="8" glyph-name="eight" horiz-adv-x="1146" d="M1067 1184Q1094 1128 1094 1067Q1094 939 1008 844Q918 748 745 702Q817 665 868 623Q923 578 946 545Q971 509 985 461Q995 413 995 373Q995 289 963 221Q928 146 868 92Q807 39 713 4Q620 -29
504 -29Q400 -29 307 0Q222 27 164 76Q105 121 74 188Q43 251 43 330Q43 410 80 471Q110 527 174 578Q229 620 303 655Q359 680 449 707Q358 753 301 834Q244 914 244 1006Q244 1086 276 1151Q310 1217 369 1270Q429 1321 508 1348Q594 1376 690 1376Q788 1376
864 1352Q941 1323 991 1282Q1040 1239 1067 1184ZM786 240Q805 290 805 348Q805 386 795 424Q785 456 756 496Q721 532 672 569Q621 604 526 651Q469 630 418 600Q368 571 326 528Q282 483 260 434Q236 381 236 322Q236 206 301 135Q367 63 506 63Q573 63 637
86Q690 106 731 147Q768 187 786 240ZM905 995Q913 1034 913 1077Q913 1163 858 1221Q801 1276 682 1276Q574 1276 502 1210Q432 1143 432 1032Q432 960 485 893Q540 826 664 762Q745 789 797 827Q844 864 872 907Q895 947 905 995Z" />
<glyph unicode="9" glyph-name="nine" horiz-adv-x="1163" d="M1010 1257Q1122 1142 1122 924Q1122 696 1038 520Q955 350 811 221Q670 97 479 18Q294 -61 86 -100L35 -18Q181 14 319 80Q462 148 563 223Q669 301 750 393Q831 489 864 569Q808 531 735 502Q660
471 553 471Q468 471 403 498Q336 522 289 569Q241 614 213 684Q186 748 186 831Q186 940 227 1042Q266 1136 340 1214Q411 1289 506 1331Q602 1372 709 1372Q895 1372 1010 1257ZM745 610Q821 629 897 690Q918 739 930 805Q940 877 940 934Q940 998 928 1057Q915
1119 889 1163Q858 1214 815 1239Q765 1268 705 1268Q633 1268 573 1237Q510 1199 471 1149Q430 1096 403 1016Q379 940 379 846Q379 724 434 657Q486 590 598 590Q672 590 745 610Z" />
<glyph unicode="A" glyph-name="A" horiz-adv-x="1355" d="M965 219L946 440H483L371 219Q340 161 340 129Q340 95 373 86Q400 75 467 72L453 0H12L27 72Q73 79 94 86Q125 96 150 113Q175 132 199 164Q223 198 250 248L850 1411H1042L1159 252Q1168 159 1198 121Q1229
81 1307 72L1292 0H803L817 72Q900 75 936 100Q967 126 967 184V195Q967 209 965 219ZM774 1004L535 539H938L897 973Q894 1005 889 1092Q887 1124 887 1171Q887 1206 889 1217V1233H877Q868 1215 850 1165Q836 1127 774 1004Z" />
<glyph unicode="B" glyph-name="B" horiz-adv-x="1325" d="M309 1411H858Q969 1411 1051 1389Q1129 1366 1176 1325Q1223 1279 1243 1227Q1262 1165 1262 1102Q1262 950 1176 856Q1090 763 932 743V735Q1050 721 1130 641Q1206 566 1206 453Q1206 345 1174 262Q1140
179 1057 106Q1019 75 971 51Q925 30 868 20Q803 7 739 4Q645 0 575 0H37L49 72Q111 76 135 82Q171 91 190 109Q210 122 223 156Q234 181 244 227L430 1184Q433 1203 436 1221Q438 1231 438 1249Q438 1299 408 1317Q371 1336 297 1339L309 1411ZM553 784H733Q816
784 864 799Q917 814 963 854Q1010 896 1036 956Q1061 1016 1061 1110Q1061 1224 1004 1268Q944 1311 807 1311H655L553 784ZM717 686H535L420 100H629Q719 100 778 115Q840 127 885 162Q934 204 961 272Q989 345 989 451Q989 504 977 551Q966 592 934 625Q894
656 850 670Q794 686 717 686Z" />
<glyph unicode="C" glyph-name="C" horiz-adv-x="1196" d="M424 88Q474 68 541 68Q664 68 735 121Q809 176 854 293H989L946 78Q910 57 870 41Q831 23 772 6Q721 -9 657 -18Q593 -29 532 -29Q408 -29 315 8Q226 41 166 111Q110 175 82 274Q55 365 55 492Q55 661
102 838Q150 1012 244 1141Q335 1268 479 1354Q618 1434 803 1434Q881 1434 926 1425Q977 1416 1018 1401Q1062 1384 1090 1368Q1118 1351 1145 1329L1100 1106H961Q957 1160 950 1208Q944 1253 926 1280Q902 1309 870 1323Q839 1337 778 1337Q680 1337 606 1298Q533
1261 475 1190Q421 1128 379 1034Q337 942 315 850Q290 748 281 657Q268 563 268 475Q268 358 287 283Q302 205 338 158Q370 109 424 88Z" />
<glyph unicode="D" glyph-name="D" horiz-adv-x="1427" d="M41 0L53 72Q115 76 139 82Q175 91 195 109Q214 123 227 156Q237 176 248 227L434 1184Q438 1204 440 1219Q442 1233 442 1249Q442 1299 412 1317Q375 1336 301 1339L313 1411H797Q926 1411 1034 1382Q1136
1356 1212 1292Q1286 1228 1327 1133Q1366 1041 1366 901Q1366 805 1350 690Q1329 571 1298 481Q1267 386 1219 295Q1174 213 1112 152Q1059 99 1014 76Q957 45 899 31Q839 12 762 6Q686 0 590 0H41ZM807 1315H662L426 104H598Q664 104 719 111Q772 114 823 133Q867
147 913 180Q957 214 993 260Q1033 311 1065 393Q1098 478 1118 561Q1140 649 1149 743Q1159 846 1159 918Q1159 1012 1145 1081Q1129 1158 1094 1208Q1052 1262 987 1288Q920 1315 807 1315Z" />
<glyph unicode="E" glyph-name="E" horiz-adv-x="1327" d="M37 0L49 72Q111 76 135 82Q171 91 190 109Q210 122 223 156Q234 181 244 227L430 1184Q433 1197 436 1219Q438 1229 438 1249Q438 1299 408 1317Q371 1336 297 1339L309 1411H1270L1231 1104H1145Q1138
1172 1130 1202Q1122 1239 1106 1266Q1090 1291 1063 1300Q1033 1311 989 1311H655L553 786H735Q786 786 817 793Q847 798 874 815Q896 830 913 860Q927 884 940 932H1024L948 543H864Q873 627 846 657Q815 688 719 688H535L420 100H756Q814 100 856 111Q895 120
924 147Q958 182 975 221Q987 249 1016 338H1108L1042 0H37Z" />
<glyph unicode="F" glyph-name="F" horiz-adv-x="1280" d="M526 655L444 233L438 197Q436 184 436 168Q436 120 471 96Q505 75 592 72L580 0H37L49 72Q111 76 135 82Q171 91 190 109Q210 122 223 156Q234 181 244 227L430 1184Q433 1197 436 1219Q438 1229 438
1249Q438 1299 408 1317Q371 1336 297 1339L309 1411H1260L1223 1094H1137Q1125 1172 1118 1204Q1109 1242 1090 1270Q1072 1292 1042 1303Q1015 1311 965 1311H653L545 754H715Q763 754 797 760Q828 766 854 782Q879 802 893 827Q904 849 920 899H1004L926 504H842Q851
589 823 623Q797 655 698 655H526Z" />
<glyph unicode="G" glyph-name="G" horiz-adv-x="1292" d="M386 108T442 88T573 68Q633 68 702 84Q765 99 811 129L874 463Q877 477 881 500Q883 512 883 528Q883 577 848 596Q812 615 721 618L735 690H1247L1233 618Q1186 614 1165 608Q1141 600 1120 584Q1102
565 1090 537Q1079 511 1069 463L993 76Q896 22 782 -2Q666 -29 571 -29Q436 -29 336 8Q238 45 176 113Q111 181 84 279Q55 384 55 500Q55 659 102 831Q150 1004 242 1130Q334 1264 475 1348T803 1432Q892 1432 942 1423Q1009 1413 1044 1401Q1087 1387 1122 1368Q1150
1352 1178 1329L1133 1106H993Q990 1166 981 1208Q972 1251 948 1280Q924 1307 883 1323Q842 1335 778 1335Q680 1335 606 1296Q535 1260 475 1190Q422 1129 379 1036Q335 940 315 854Q290 755 281 662Q268 567 268 477Q268 356 289 285Q311 201 348 158Q386 108
442 88Z" />
<glyph unicode="H" glyph-name="H" horiz-adv-x="1652" d="M1401 1184L1214 227Q1213 222 1211 211T1208 195Q1206 182 1206 162Q1206 112 1239 94Q1272 75 1348 72L1335 0H807L819 72Q881 76 905 82Q941 91 961 109Q980 123 993 156Q1004 181 1014 227L1104 696H543L453
227Q448 201 446 195Q444 182 444 162Q444 112 477 94Q510 75 586 72L573 0H45L57 72Q119 76 143 82Q179 91 199 109Q218 123 231 156Q241 176 252 227L438 1184Q441 1197 444 1219Q446 1231 446 1249Q446 1299 416 1317Q379 1336 305 1339L317 1411H846L834 1339Q772
1335 748 1329Q718 1321 694 1305Q672 1285 659 1257Q650 1234 639 1184L563 799H1124L1200 1184Q1203 1197 1206 1219Q1208 1229 1208 1249Q1208 1299 1178 1317Q1141 1336 1067 1339L1079 1411H1608L1595 1339Q1533 1335 1509 1329Q1478 1320 1456 1305Q1434
1285 1421 1257Q1412 1234 1401 1184Z" />
<glyph unicode="I" glyph-name="I" horiz-adv-x="841" d="M614 1184L428 227Q427 222 425 211T422 195Q420 182 420 162Q420 111 453 94Q485 75 561 72L549 0H20L33 72Q94 75 119 82Q156 92 174 109Q195 124 207 156Q216 177 227 227L414 1184Q417 1197 420 1219Q422
1229 422 1249Q422 1299 391 1317Q356 1336 281 1339L293 1411H821L809 1339Q747 1335 723 1329Q692 1321 670 1305Q647 1285 635 1257Q628 1239 614 1184Z" />
<glyph unicode="J" glyph-name="J" horiz-adv-x="948" d="M731 1184L543 221Q518 101 483 14Q446 -74 389 -131Q330 -193 250 -231Q160 -275 51 -301L16 -225Q99 -194 158 -152Q216 -110 248 -61Q283 -7 303 55Q327 128 340 205L530 1184Q531 1192 534 1205T537
1221Q539 1231 539 1249Q539 1298 508 1317Q471 1336 397 1339L410 1411H938L926 1339Q864 1335 840 1329Q810 1321 786 1305Q763 1284 752 1257Q742 1234 731 1184Z" />
<glyph unicode="K" glyph-name="K" horiz-adv-x="1482" d="M1110 1120L770 788L1075 172Q1102 118 1145 98Q1182 78 1262 72L1249 0H934L584 745L1018 1180Q1056 1218 1073 1245Q1087 1266 1087 1288Q1087 1336 989 1339L1001 1411H1436L1423 1339Q1384 1333 1354
1321Q1326 1310 1288 1284Q1231 1238 1212 1219L1110 1120ZM635 1184L449 227Q447 221 442 195Q440 182 440 162Q440 112 473 94Q506 75 582 72L569 0H41L53 72Q115 76 139 82Q175 91 195 109Q214 123 227 156Q237 176 248 227L434 1184Q437 1197 440 1219Q442
1229 442 1249Q442 1299 412 1317Q375 1336 301 1339L313 1411H842L829 1339Q767 1335 743 1329Q714 1321 690 1305Q668 1285 655 1257Q646 1234 635 1184Z" />
<glyph unicode="L" glyph-name="L" horiz-adv-x="1114" d="M414 100H702Q760 100 799 113Q839 125 872 154Q897 173 932 229Q962 281 987 346H1077L981 0H31L43 72Q104 75 129 82Q165 91 184 109Q204 122 217 156Q224 173 238 227L424 1184Q427 1197 430 1219Q432
1229 432 1249Q432 1299 401 1317Q366 1336 291 1339L303 1411H842L829 1339Q763 1335 739 1329Q701 1320 680 1300Q654 1281 643 1251Q634 1228 623 1178L414 100Z" />
<glyph unicode="M" glyph-name="M" horiz-adv-x="1912" d="M1860 1411L1847 1339Q1792 1336 1757 1327Q1723 1318 1702 1298Q1676 1276 1669 1253Q1659 1223 1653 1184L1530 233Q1526 205 1526 199V170Q1526 118 1550 96Q1576 75 1642 72L1630 0H1137L1149 72Q1206
75 1231 82Q1261 87 1284 104Q1304 123 1313 150Q1324 183 1329 219L1436 969Q1439 999 1448 1038L1460 1110Q1467 1153 1473 1174Q1474 1181 1476 1189T1479 1202T1481 1210H1468L1463 1196Q1458 1182 1454 1171Q1441 1142 1430 1110Q1424 1097 1414 1073T1401
1042Q1384 1004 1374 987L856 0H737L635 942Q632 976 629 1020L623 1100Q621 1126 621 1169Q618 1190 618 1212H606Q603 1199 600 1167Q593 1129 588 1096Q586 1087 581 1058T571 1014L555 942L369 221Q368 217 364 201T358 178Q354 154 354 143Q354 106 385 90Q412
75 489 72L477 0H47L59 72Q114 76 133 82Q163 92 182 109Q199 125 215 158Q223 175 240 233L489 1184Q497 1207 500 1225Q502 1237 502 1253Q502 1300 469 1317Q432 1336 356 1339L369 1411H768L864 514Q867 474 870 442Q871 432 872 413T874 385Q877 367 877 328V240H889Q889
241 892 252T899 274Q906 303 918 334Q935 379 948 412L989 500L1454 1411H1860Z" />
<glyph unicode="N" glyph-name="N" horiz-adv-x="1607" d="M1147 0H1014L664 836Q604 983 584 1071Q562 1162 559 1184H547Q547 1161 545 1139Q545 1134 542 1104T537 1055Q534 1038 530 1000T522 940Q514 881 498 807L385 227Q382 208 379 190Q377 178 377 162Q377
111 410 94Q442 75 518 72L506 0H45L57 72Q119 76 143 82Q179 91 199 109Q218 123 231 156Q241 176 252 227L438 1184Q441 1197 444 1219Q446 1229 446 1249Q446 1299 416 1317Q379 1336 305 1339L317 1411H637L993 555Q1036 452 1057 362Q1073 274 1075 260H1087Q1087
263 1102 403Q1115 526 1145 682L1243 1184Q1246 1197 1249 1219Q1251 1229 1251 1249Q1251 1299 1221 1317Q1184 1336 1110 1339L1122 1411H1567L1554 1339Q1498 1335 1477 1329Q1447 1320 1427 1305Q1406 1286 1397 1257Q1385 1228 1376 1184L1147 0Z" />
<glyph unicode="O" glyph-name="O" horiz-adv-x="1316" d="M1225 1130Q1260 1023 1260 897Q1260 816 1243 694Q1230 603 1192 485Q1151 375 1100 291Q1045 201 965 127Q882 52 786 14Q683 -29 559 -29Q319 -29 188 115Q57 255 57 516Q57 612 76 717Q91 821 129
924Q166 1032 221 1118Q279 1210 358 1280Q433 1348 539 1393Q645 1434 768 1434Q879 1434 969 1401Q1059 1366 1124 1298Q1188 1231 1225 1130ZM1036 795Q1047 903 1047 956Q1047 1145 983 1239Q919 1335 766 1335Q652 1335 578 1290Q506 1249 444 1151Q398 1079
365 989Q339 922 311 805Q290 707 281 618Q270 522 270 449Q270 241 340 156Q409 68 557 68Q664 68 735 113Q810 159 868 254Q916 330 948 420Q978 501 1004 608Q1029 722 1036 795Z" />
<glyph unicode="P" glyph-name="P" horiz-adv-x="1286" d="M512 588L444 233Q436 198 436 168Q436 117 471 96Q505 75 592 72L580 0H37L49 72Q111 76 135 82Q171 91 190 109Q210 122 223 156Q234 181 244 227L430 1184Q433 1197 436 1219Q438 1229 438 1249Q438
1299 408 1317Q371 1336 297 1339L309 1411H780Q1038 1411 1151 1329Q1262 1246 1262 1065Q1262 914 1192 807T1014 647Q939 609 858 600Q772 588 676 588H512ZM1014 868Q1055 956 1055 1069Q1055 1125 1044 1174Q1032 1217 1004 1249Q972 1281 924 1296Q879 1311
801 1311H653L532 686H688Q747 686 809 696Q865 705 911 739Q974 787 1014 868Z" />
<glyph unicode="Q" glyph-name="Q" horiz-adv-x="1306" d="M1212 1130Q1247 1028 1247 897Q1247 800 1233 709Q1219 611 1184 512Q1143 399 1102 326Q1051 232 985 164Q908 87 829 45Q741 -4 635 -16Q684 -29 729 -39Q752 -46 836 -66Q872 -74 946 -86Q993 -94
1049 -94Q1064 -94 1120 -90Q1160 -87 1196 -74L1141 -229Q1114 -241 1075 -244Q1028 -250 989 -250Q911 -250 844 -223Q769 -194 702 -158L549 -80Q473 -41 373 -8Q206 44 125 178Q45 311 45 516Q45 609 63 717Q80 823 117 924Q155 1031 211 1118Q265 1208 346
1280Q421 1347 528 1393Q635 1434 758 1434Q870 1434 958 1401Q1049 1366 1114 1298Q1180 1229 1212 1130ZM1024 795Q1034 893 1034 956Q1034 1144 971 1239Q907 1335 756 1335Q641 1335 567 1290Q493 1247 432 1151Q389 1086 352 989Q322 909 299 805Q276 699
268 618Q258 516 258 449Q258 242 326 156Q389 68 539 68Q647 68 721 113Q798 158 856 254Q901 324 936 420Q970 516 991 608Q1016 716 1024 795Z" />
<glyph unicode="R" glyph-name="R" horiz-adv-x="1314" d="M655 1311L545 741H700Q864 741 954 825Q1040 908 1040 1077Q1040 1209 975 1262Q909 1311 776 1311H655ZM528 653L444 227Q443 222 441 211T438 195Q436 182 436 162Q436 111 469 94Q501 75 578 72L565
0H37L49 72Q111 76 135 82Q171 91 190 109Q210 122 223 156Q234 181 244 227L430 1184Q433 1197 436 1219Q438 1229 438 1249Q438 1299 408 1317Q371 1336 297 1339L309 1411H825Q1030 1411 1139 1337Q1247 1262 1247 1100Q1247 987 1210 907Q1176 829 1108 774Q1044
722 952 696Q867 670 756 670V662Q831 641 872 610Q917 578 946 528Q971 484 1008 385Q1024 338 1081 190Q1104 134 1130 104Q1158 75 1235 72L1223 0H932L848 260Q805 390 762 489Q739 543 721 569Q701 598 672 618Q648 635 608 645Q584 649 528 653Z" />
<glyph unicode="S" glyph-name="S" horiz-adv-x="1118" d="M348 86Q398 68 473 68Q620 68 698 143Q778 220 778 348Q778 448 729 512Q680 576 588 623L467 686Q364 738 303 817Q242 893 242 1026Q242 1115 276 1194Q310 1266 373 1323Q432 1376 516 1405Q605 1434
696 1434Q840 1434 936 1397Q1027 1355 1067 1317L1028 1096H903Q903 1140 893 1192Q883 1231 856 1270Q827 1302 786 1319Q741 1337 676 1337Q547 1337 481 1268Q414 1198 414 1087Q414 1038 426 1001Q439 963 461 936Q484 907 518 885Q568 853 592 840L713 776Q757
751 807 719Q855 683 887 643Q919 601 940 545T961 418Q961 323 930 238Q895 152 836 96Q773 39 678 4Q582 -29 455 -29Q312 -29 205 6Q101 40 41 94L88 350H219Q219 278 231 225Q241 174 270 137Q302 100 348 86Z" />
<glyph unicode="T" glyph-name="T" horiz-adv-x="1183" d="M121 1411H1161L1096 1090H1001Q1003 1098 1004 1114T1006 1135V1169Q1006 1249 981 1280Q953 1311 883 1311H733L522 227L516 190Q514 182 514 164Q514 116 549 96Q582 75 668 72L653 0H104L119 72Q182
76 209 82Q249 93 266 109Q289 124 301 156Q308 173 322 227L532 1311H379Q330 1311 295 1300Q260 1288 236 1264Q209 1234 195 1196Q175 1152 158 1090H59L121 1411Z" />
<glyph unicode="U" glyph-name="U" horiz-adv-x="1402" d="M326 147Q390 94 524 94Q692 94 782 190Q868 284 901 453L1042 1184Q1043 1189 1045 1201T1049 1221Q1051 1233 1051 1249Q1051 1295 1020 1317Q983 1336 899 1339L911 1411H1374L1362 1339Q1306 1335
1284 1329Q1252 1320 1235 1305Q1213 1284 1204 1257Q1195 1234 1184 1184L1042 453Q994 200 862 86Q729 -29 518 -29Q285 -29 176 63Q68 153 68 311Q68 333 72 391Q73 409 86 489L219 1184Q225 1217 225 1243Q225 1296 195 1317Q158 1336 86 1339L98 1411H627L614
1339Q552 1335 528 1329Q493 1320 473 1305Q448 1282 440 1257Q431 1234 420 1184L283 483Q264 394 264 317Q264 200 326 147Z" />
<glyph unicode="V" glyph-name="V" horiz-adv-x="1341" d="M383 1192L432 571Q433 563 436 525T440 463Q441 442 442 401T444 340Q445 329 446 290T449 231Q451 199 451 160H463Q464 163 468 171T476 190T485 213L524 305Q573 411 582 430Q612 498 651 571L971
1192Q1001 1250 1001 1282Q1001 1315 971 1327Q936 1336 874 1339L889 1411H1329L1315 1339Q1279 1334 1245 1323Q1213 1313 1190 1292Q1158 1264 1143 1239Q1128 1217 1094 1151L487 0H299L182 1157Q180 1190 172 1235Q162 1273 152 1290Q136 1311 113 1323Q85
1336 49 1339L63 1411H559L545 1339Q448 1336 414 1305Q377 1274 383 1192Z" />
<glyph unicode="W" glyph-name="W" horiz-adv-x="1867" d="M1061 1411L1106 608Q1107 590 1108 554T1110 500Q1111 481 1112 446T1114 393Q1116 358 1116 303V250H1128Q1129 253 1131 259T1138 277T1145 297Q1162 343 1176 377Q1176 378 1214 483Q1249 574 1264
608L1483 1147Q1513 1220 1513 1260Q1513 1301 1483 1319Q1447 1336 1382 1339L1395 1411H1837L1825 1339Q1786 1333 1757 1321Q1726 1304 1706 1284Q1686 1261 1663 1225Q1645 1196 1622 1141L1139 0H956L907 897Q905 918 905 961Q903 983 903 1026Q903 1081 905
1104V1149H893L881 1112Q877 1103 871 1081T860 1049Q844 999 834 973Q804 898 803 897L418 0H229L193 1159Q191 1177 189 1204T186 1241Q180 1274 166 1294Q151 1316 127 1325Q96 1337 63 1339L76 1411H561L549 1339Q456 1330 422 1307Q383 1280 383 1204V1192L401
610V539Q401 416 399 360Q396 277 393 250H406Q418 285 426 305Q440 350 459 391Q462 398 500 498Q512 530 547 610L889 1411H1061Z" />
<glyph unicode="X" glyph-name="X" horiz-adv-x="1468" d="M1182 1176L866 760L1069 240Q1087 194 1106 162Q1125 129 1145 113Q1163 96 1190 86Q1216 75 1241 72L1229 0H737L750 72Q847 75 868 115Q890 150 860 229L715 618H707L420 225Q373 160 373 125Q373
95 401 86Q437 74 481 72L469 0H41L53 72Q75 74 113 86Q143 96 168 117Q186 131 227 172Q251 199 301 262L666 735L485 1188Q471 1224 451 1262Q436 1287 416 1305Q397 1320 375 1329Q347 1336 324 1339L336 1411H823L811 1339Q741 1336 709 1317Q678 1296 678
1262Q678 1246 684 1225Q687 1202 696 1184L815 872H823L1047 1182Q1096 1251 1096 1286Q1096 1333 999 1339L1012 1411H1421L1409 1339Q1379 1336 1352 1327T1298 1298Q1274 1282 1243 1251Q1211 1215 1182 1176Z" />
<glyph unicode="Y" glyph-name="Y" horiz-adv-x="1253" d="M330 227L391 565L215 1171Q199 1224 184 1251Q170 1280 150 1300Q134 1316 109 1327Q84 1336 55 1339L68 1411H537L524 1339Q399 1336 399 1260Q399 1249 403 1225Q406 1210 414 1182L545 698H553L870
1186Q893 1220 903 1243T913 1286Q913 1316 887 1325Q851 1336 805 1339L817 1411H1239L1227 1339Q1198 1336 1169 1327Q1145 1319 1116 1296Q1085 1272 1061 1241Q1038 1217 991 1149L598 578L530 227Q521 184 524 156Q524 124 541 109Q555 91 590 82Q614 76 676
72L662 0H113L127 72Q192 76 217 82Q256 92 274 109Q297 124 309 156Q320 181 330 227Z" />
<glyph unicode="Z" glyph-name="Z" horiz-adv-x="1331" d="M1260 1296L287 100H696Q759 100 801 115Q845 127 881 158Q916 187 946 236Q977 284 1004 352H1094L995 0H47L68 115L1038 1311H666Q565 1311 500 1255Q432 1194 381 1079H291L383 1411H1280L1260 1296Z" />
<glyph unicode="a" glyph-name="a" horiz-adv-x="1110" d="M451 971Q561 1034 686 1034Q752 1034 805 1010Q858 984 872 928Q891 959 909 977L948 1014H1051Q1025 972 999 893Q982 844 952 727L844 250Q834 198 834 178Q834 132 858 117Q878 98 926 98Q940 98
954 100Q967 100 991 104L997 41Q940 13 895 -2Q842 -18 797 -18Q718 -18 684 25Q649 70 649 143Q649 205 664 258Q625 198 592 158Q557 112 504 68Q456 26 403 2Q349 -25 289 -25Q174 -25 115 49Q53 123 53 252Q53 400 106 547Q160 691 248 797Q341 909 451 971ZM758
918Q728 938 674 938Q586 938 510 883Q431 822 375 731Q319 641 285 516Q250 391 250 264Q250 179 281 145Q308 109 356 109Q402 109 446 141Q501 178 541 221Q583 264 627 328Q684 414 698 438L799 862Q791 893 758 918Z" />
<glyph unicode="b" glyph-name="b" horiz-adv-x="1069" d="M690 35Q583 -29 449 -29Q358 -29 299 10Q244 45 221 90Q217 84 213 77T205 63T199 53Q196 47 190 40T182 31Q179 28 175 22T168 14Q162 10 152 0H43Q71 58 88 115Q119 219 133 287L330 1202Q331 1209
332 1216T335 1230T338 1241Q340 1251 340 1274Q340 1333 305 1356Q272 1377 197 1380L211 1442L504 1495H530Q530 1493 534 1480T539 1456Q543 1424 543 1395Q543 1352 537 1290Q522 1202 510 1149L418 748Q442 786 492 850Q530 899 584 940Q622 972 692 1006Q750
1030 815 1030Q921 1030 979 956Q1036 881 1036 727Q1036 582 995 444Q953 306 877 203Q802 102 690 35ZM350 100Q398 72 457 72Q545 72 616 125Q680 171 737 268Q786 357 813 477Q840 594 840 723Q840 818 811 860Q784 897 741 897Q695 897 645 864Q597 834 545
782Q495 730 453 672Q412 617 379 559L293 158Q304 128 350 100Z" />
<glyph unicode="c" glyph-name="c" horiz-adv-x="958" d="M397 973Q506 1032 631 1032Q751 1032 813 1006Q885 974 913 950L872 762H733V788Q733 869 707 901Q678 936 612 936Q528 936 465 885Q396 831 350 750Q304 671 274 559Q248 455 248 344Q248 217 305 154Q362
88 461 88Q538 88 610 123Q677 155 739 213L793 141Q736 79 637 25Q535 -29 422 -29Q249 -29 152 72Q53 170 53 360Q53 477 96 600Q135 717 215 815Q293 913 397 973Z" />
<glyph unicode="d" glyph-name="d" horiz-adv-x="1120" d="M688 438L782 879Q767 902 737 920Q705 936 664 936Q569 936 492 885Q406 831 350 745Q287 655 254 535Q217 417 217 276Q217 183 250 147Q282 109 330 109Q381 109 432 141Q487 176 528 221Q578 271
616 328Q668 404 688 438ZM641 150Q641 200 653 258Q626 211 584 156Q549 111 494 66Q441 22 389 0Q328 -25 268 -25Q152 -25 88 51Q20 128 20 262Q20 429 78 569Q137 713 229 815Q327 919 444 977Q561 1034 692 1034Q759 1034 813 1006L852 1202Q860 1238 860
1276Q860 1334 827 1356Q794 1377 719 1380L733 1442L1022 1495H1049Q1059 1462 1059 1401Q1059 1356 1053 1298Q1047 1244 1028 1149L836 250Q825 201 825 176Q825 137 848 117Q868 98 918 98Q946 98 983 104L989 41Q925 10 872 -4Q830 -18 780 -18Q708 -18 676
27Q641 73 641 150Z" />
<glyph unicode="e" glyph-name="e" horiz-adv-x="974" d="M248 399V350Q248 223 303 156Q359 88 457 88Q543 88 616 125Q694 164 762 229L815 158Q744 76 643 27Q534 -29 397 -29Q229 -29 141 74Q53 174 53 367Q53 481 96 604Q139 723 217 819Q294 915 399 973Q505
1032 629 1032Q763 1032 846 967Q928 903 928 778Q928 632 770 539Q611 446 297 446H252Q248 418 248 399ZM719 690Q739 734 739 791Q739 851 707 893Q672 934 616 934Q553 934 498 903Q447 875 397 819Q357 770 319 692Q290 629 268 541H328Q447 541 526 559Q603
577 651 612Q700 649 719 690Z" />
<glyph unicode="f" glyph-name="f" horiz-adv-x="1103" d="M643 893L453 -55Q435 -130 416 -182Q390 -244 354 -289Q315 -334 262 -358Q212 -385 139 -385Q107 -385 74 -375Q38 -365 14 -352V-289Q74 -286 123 -272Q167 -264 197 -238Q225 -212 244 -172Q262 -124
272 -72L461 893H332L344 958L479 1004L512 1167Q547 1331 649 1413Q753 1495 901 1495Q954 1495 1012 1485Q1051 1478 1096 1458L1061 1288H936Q936 1339 924 1372Q910 1407 866 1407Q810 1407 770 1370Q728 1332 707 1227L664 1006H911L860 893H643Z" />
<glyph unicode="g" glyph-name="g" horiz-adv-x="1230" d="M1149 1040L1194 901Q1143 882 1128 879Q1103 872 1061 872Q1025 872 995 881Q955 891 918 911Q959 876 983 821Q1008 760 1008 702Q1008 656 983 598Q959 540 907 492Q855 443 770 412Q691 379 567 379Q555
379 549 381H528Q470 370 420 334Q371 300 371 262Q371 242 385 227Q397 212 438 209L606 205Q786 202 874 139Q958 77 958 -47Q958 -138 920 -201Q879 -269 813 -313Q744 -360 653 -381Q558 -406 457 -406Q355 -406 268 -389Q199 -375 141 -344Q90 -318 68 -276Q45
-239 45 -195Q45 -162 57 -133Q71 -105 90 -86Q112 -64 133 -51Q152 -38 180 -27L262 -23Q250 -39 233 -82Q217 -125 217 -174Q217 -239 272 -276Q323 -315 461 -315Q632 -315 711 -256Q786 -199 786 -98Q786 -34 737 0Q686 32 584 35Q544 36 446 43Q400 46 373
49Q296 55 250 82Q199 108 199 188T264 319Q334 376 434 408Q384 421 352 446Q313 474 291 508Q267 539 254 586Q242 628 242 672Q242 751 276 821Q314 892 367 934Q419 979 496 1008Q567 1032 647 1032Q702 1032 748 1026Q762 1023 792 1018T838 1010Q903 995
915 993Q948 985 985 985Q1033 985 1071 999Q1120 1020 1149 1040ZM469 518Q511 473 598 473Q658 473 698 500Q742 526 768 567Q792 603 809 662Q821 713 821 772Q821 848 780 895Q738 938 647 938Q606 938 565 920Q521 898 494 864Q464 830 444 772Q426 716 426
643Q426 561 469 518Z" />
<glyph unicode="h" glyph-name="h" horiz-adv-x="1034" d="M662 250L764 741Q774 793 774 815Q774 889 707 889Q657 889 610 856Q559 824 512 774Q456 715 424 668Q374 596 352 559L233 0H47L305 1202Q313 1238 313 1274Q313 1334 281 1356Q247 1377 172 1380L186
1442L479 1495H506Q506 1493 509 1480T514 1458Q518 1426 518 1399Q518 1358 512 1294Q502 1219 485 1149L397 754Q433 808 475 858Q514 905 567 948Q611 984 672 1012Q730 1034 788 1034Q885 1034 926 981Q967 923 967 846Q967 815 956 760L848 250Q836 191 836
168Q836 130 854 115Q873 98 920 98Q950 98 995 104L1001 41Q938 10 881 -4Q832 -18 788 -18Q712 -18 680 20Q647 59 647 133Q647 152 651 188Q653 210 662 250Z" />
<glyph unicode="i" glyph-name="i" horiz-adv-x="509" d="M367 752L252 250Q240 200 240 168Q240 129 260 115Q279 98 326 98Q356 98 401 104L408 41Q344 10 283 -4Q231 -18 178 -18Q111 -18 78 23Q43 63 43 133Q43 175 59 250L174 725Q181 750 184 770Q186 784
186 803Q186 856 150 881Q111 903 27 903L41 967Q73 984 141 1001Q194 1016 246 1016Q314 1016 348 983Q383 950 383 870Q383 827 367 752ZM438 1411Q475 1371 475 1319Q475 1265 438 1229Q403 1190 348 1190Q294 1190 258 1229Q221 1265 221 1319Q221 1371 258
1411Q295 1448 348 1448Q402 1448 438 1411Z" />
<glyph unicode="j" glyph-name="j" horiz-adv-x="735" d="M606 752L453 -8Q433 -102 399 -166Q366 -234 313 -281Q264 -327 193 -362Q138 -388 37 -422L4 -338Q76 -306 115 -281Q159 -248 188 -209Q215 -170 238 -111Q259 -48 272 25L412 725Q413 728 414 735T417
749T420 764Q424 792 424 803Q424 856 387 881Q348 903 264 903L279 967Q309 983 379 1001Q432 1016 483 1016Q548 1016 586 981Q621 944 621 866Q621 862 616 815Q614 794 606 752ZM676 1411Q713 1369 713 1319Q713 1266 676 1229Q640 1190 586 1190Q531 1190
496 1229Q459 1265 459 1319Q459 1371 496 1411Q532 1448 586 1448Q639 1448 676 1411Z" />
<glyph unicode="k" glyph-name="k" horiz-adv-x="1042" d="M487 1149L236 0H49L307 1202Q315 1238 315 1274Q315 1334 283 1356Q249 1377 174 1380L188 1442L481 1495H508Q508 1493 511 1480T516 1458Q520 1426 520 1399Q520 1358 514 1294Q504 1219 487 1149ZM535
178L379 551L819 1006H1026L1008 918Q928 918 854 868Q788 822 688 727L553 598L721 211Q744 161 770 133Q794 106 856 106Q877 106 928 113L934 49Q866 14 834 4Q778 -12 741 -12Q708 -12 678 -2Q647 8 627 29Q601 50 580 88Q553 133 535 178Z" />
<glyph unicode="l" glyph-name="l" horiz-adv-x="503" d="M432 1149L240 250L231 205Q227 175 227 166Q227 129 248 115Q267 98 315 98Q349 98 397 104L403 41Q339 10 281 -4Q229 -18 178 -18Q100 -18 68 20Q35 59 35 137Q35 155 39 193Q44 232 47 250L252 1202Q260
1238 260 1276Q260 1334 227 1356Q194 1377 119 1380L133 1442L426 1495H453Q453 1493 456 1480T461 1458Q465 1426 465 1399Q465 1353 459 1292Q450 1234 432 1149Z" />
<glyph unicode="m" glyph-name="m" horiz-adv-x="1609" d="M954 791L948 748Q984 802 1026 852Q1066 904 1114 944Q1146 972 1214 1010Q1266 1034 1325 1034Q1423 1034 1462 981Q1503 925 1503 846Q1503 818 1493 760L1384 250Q1383 243 1380 229T1376 207Q1372
179 1372 168Q1372 129 1393 115Q1412 98 1458 98Q1488 98 1532 104L1538 41Q1476 11 1419 -4Q1373 -18 1327 -18Q1254 -18 1221 23Q1186 63 1186 139Q1186 157 1190 195Q1195 233 1198 250L1300 741Q1311 790 1311 815Q1311 889 1243 889Q1201 889 1155 858Q1110
826 1065 778Q1034 746 983 676Q959 642 913 569L793 0H606L762 735Q772 793 772 815Q772 889 707 889Q660 889 616 856Q566 819 526 774Q481 725 442 668Q395 597 373 559L254 0H68L221 725Q231 783 231 805Q231 859 199 881Q163 903 80 903L94 967Q122 982 188
1001Q236 1016 295 1016Q349 1016 385 975Q416 935 416 852Q416 819 414 797Q411 760 401 731Q429 775 479 842Q516 890 569 938Q613 977 674 1008Q725 1034 786 1034Q883 1034 920 979Q954 919 954 836V791Z" />
<glyph unicode="n" glyph-name="n" horiz-adv-x="1081" d="M676 250L778 741Q788 793 788 815Q788 889 721 889Q671 889 625 856Q571 822 526 774Q465 707 438 668Q377 576 367 559L248 0H61L215 725Q225 783 225 805Q225 859 193 881Q157 903 74 903L88 967Q119
983 182 1001Q230 1016 289 1016Q343 1016 379 975Q410 933 410 852Q410 823 408 801Q405 771 395 731Q432 791 475 842Q515 890 571 938Q618 977 682 1008Q738 1034 803 1034Q899 1034 940 981Q981 925 981 846Q981 818 971 760L862 250Q861 243 858 229T854 207Q850
179 850 168Q850 129 870 115Q890 98 936 98Q966 98 1010 104L1016 41Q953 10 895 -4Q846 -18 807 -18Q731 -18 696 23Q662 63 662 133Q662 148 666 188Q667 199 676 250Z" />
<glyph unicode="o" glyph-name="o" horiz-adv-x="1030" d="M948 791Q973 717 973 635Q973 499 934 383Q891 254 825 172Q752 77 655 27Q554 -29 434 -29Q353 -29 276 0Q210 25 158 82Q109 134 82 207Q55 274 55 365Q55 508 100 631Q145 755 219 842Q289 926 391
981Q484 1032 594 1032Q689 1032 758 1001Q829 971 877 918Q925 859 948 791ZM739 381Q776 514 776 666Q776 794 733 864Q687 934 586 934Q524 934 471 899Q417 865 377 805Q318 719 285 596Q252 478 252 334Q252 211 295 141Q339 70 442 70Q498 70 545 94Q595
122 629 162Q700 245 739 381Z" />
<glyph unicode="p" glyph-name="p" horiz-adv-x="1259" d="M569 561L477 131Q493 102 528 86Q562 68 606 68Q715 68 797 127Q879 187 930 281Q977 366 1008 492Q1032 608 1032 723Q1032 820 1004 860Q976 897 934 897Q887 897 838 864Q787 832 737 782Q691 736
645 674Q612 632 569 561ZM449 -6L410 -190Q406 -214 403 -225Q401 -236 401 -254Q401 -296 432 -311Q467 -329 543 -332L528 -401H37L51 -332Q104 -329 125 -322Q154 -314 172 -299Q192 -282 203 -258Q218 -214 223 -188L418 725Q428 783 428 805Q428 859 395
881Q360 903 276 903L291 967Q319 982 385 1001Q433 1016 492 1016Q546 1016 582 975Q612 934 612 852Q612 821 610 799Q607 766 598 731Q646 804 676 838Q724 894 772 934Q819 973 883 1004Q939 1030 1008 1030Q1115 1030 1171 956Q1229 880 1229 727Q1229 589
1186 451Q1140 313 1059 207Q979 102 858 37Q735 -29 592 -29Q520 -29 449 -6Z" />
<glyph unicode="q" glyph-name="q" horiz-adv-x="1075" d="M541 -190L647 258Q611 200 575 158Q543 115 487 68Q441 27 387 2Q332 -25 272 -25Q157 -25 98 49Q37 122 37 252Q37 405 90 547Q143 690 231 797Q327 910 434 971Q545 1034 670 1034Q737 1034 788 1010Q842
984 856 928Q871 955 893 977Q904 988 932 1014H1034Q1006 965 983 893Q960 827 936 727L727 -188Q724 -209 721 -225Q717 -247 717 -256Q717 -295 745 -311Q776 -329 838 -332L821 -401H332L348 -332Q410 -328 434 -322Q464 -316 487 -299Q508 -285 520 -258Q538
-205 541 -190ZM741 918Q712 938 657 938Q570 938 494 883Q414 823 358 731Q305 646 268 516Q233 386 233 264Q233 181 264 145Q292 109 340 109Q385 109 430 141Q485 179 524 221Q568 265 610 328Q662 404 682 438L782 862Q773 895 741 918Z" />
<glyph unicode="r" glyph-name="r" horiz-adv-x="768" d="M403 786Q400 766 397 733Q431 804 459 848T535 944Q574 984 616 1010Q656 1034 700 1034Q726 1034 758 1024L715 815Q693 822 690 823Q680 825 653 825Q547 825 465 733Q382 638 342 446L248 0H61L215
725Q225 783 225 805Q225 859 193 881Q157 903 74 903L88 967Q119 983 182 1001Q230 1016 289 1016Q406 1016 406 842Q406 801 403 786Z" />
<glyph unicode="s" glyph-name="s" horiz-adv-x="894" d="M545 -4Q465 -29 377 -29Q304 -29 246 -18Q191 -9 152 6Q117 19 88 37Q54 56 45 63L80 264H209V240Q209 147 250 106Q290 66 393 66Q436 66 479 76Q514 84 553 109Q586 132 602 166Q621 201 621 250Q621
325 582 358Q544 391 469 424L365 469Q271 511 221 567Q166 625 166 733Q166 808 199 864Q228 917 283 958Q330 993 403 1016Q475 1034 551 1034Q672 1034 737 1008Q803 980 840 956L809 772H684Q681 848 645 897Q609 940 510 940Q428 940 381 899Q334 855 334
780Q334 732 358 698Q381 662 453 631L557 586Q675 536 733 475Q793 409 793 303Q793 230 762 170Q729 106 676 66Q621 20 545 -4Z" />
<glyph unicode="t" glyph-name="t" horiz-adv-x="651" d="M641 1006L590 893H373L242 274Q229 215 229 174Q229 124 258 100Q286 78 342 78Q372 78 399 86Q430 92 465 104L481 37Q422 8 367 -10Q310 -29 250 -29Q153 -29 96 14Q41 57 41 158Q41 167 45 205T53
260L186 893H66L78 958L223 1006Q240 1051 256 1085Q275 1128 295 1165Q309 1197 336 1239Q359 1277 377 1296L483 1313Q481 1306 474 1284T461 1247Q443 1190 436 1163Q421 1110 414 1079Q411 1065 405 1041T397 1006H641Z" />
<glyph unicode="u" glyph-name="u" horiz-adv-x="1079" d="M657 154Q657 198 670 258Q638 210 594 154Q548 99 502 61Q446 17 395 -4Q334 -29 274 -29Q178 -29 137 27Q96 81 96 160Q96 188 106 246L209 725Q219 783 219 805Q219 859 186 881Q151 903 68 903L82
967Q113 983 176 1001Q224 1016 283 1016Q338 1016 377 975Q412 929 412 844Q412 827 408 791Q407 783 406 773T401 750T397 729L299 264Q289 212 289 190Q289 117 356 117Q405 117 455 150Q507 186 551 231Q604 287 639 338Q688 409 711 446L829 1006H1014L856
250Q846 198 846 182Q846 100 946 100Q963 100 973 102Q993 102 1004 104L1010 41Q895 -18 803 -18Q729 -18 694 29Q657 75 657 154Z" />
<glyph unicode="v" glyph-name="v" horiz-adv-x="983" d="M788 1020L961 989V918L412 -8H266L205 729Q203 771 195 813Q188 847 174 866Q162 885 127 895Q99 903 45 903L59 967Q91 984 152 1001Q196 1016 254 1016Q294 1016 313 1001Q336 986 350 956Q365 922
371 872Q377 820 383 748L406 446Q412 352 412 285V219L408 176H420L547 403Q627 547 676 653Q723 757 748 825Q771 891 780 940Q783 965 788 1020Z" />
<glyph unicode="w" glyph-name="w" horiz-adv-x="1513" d="M1010 205H1020L1100 389Q1164 539 1200 633Q1233 713 1262 803Q1279 860 1290 924Q1298 971 1303 1020L1470 989V918L997 -10H872L819 471Q810 576 807 655Q806 677 805 700T804 736T803 756H797L451
-10H303L215 729Q214 735 213 750T211 774Q208 805 199 831Q190 873 158 889Q126 903 55 903L70 967Q101 983 162 1001Q207 1016 264 1016Q333 1016 358 963Q383 909 395 780L426 473Q435 381 438 326V236V205H451L799 1006H924L983 512L995 406Q997 377 1004 311Q1005
299 1006 275T1008 240Q1010 221 1010 205Z" />
<glyph unicode="x" glyph-name="x" horiz-adv-x="1126" d="M479 516L391 780Q375 822 360 846Q346 869 324 883Q299 896 272 899Q232 903 203 903L217 967Q246 982 297 1001Q331 1016 387 1016Q447 1016 487 981Q527 944 557 834L614 625L856 1006H1077L1059 918Q1033
915 997 907Q971 901 948 889Q925 873 903 852Q890 839 854 795L649 522L748 217Q769 152 799 127Q826 100 887 100Q907 100 920 102Q940 102 948 104L954 41Q898 15 852 0Q794 -18 739 -18Q677 -18 639 41Q602 95 569 213L514 410L248 0H43L61 88Q101 94 127 106Q155
117 182 135Q201 148 233 184Q247 198 293 260L479 516Z" />
<glyph unicode="y" glyph-name="y" horiz-adv-x="1054" d="M430 2L369 -4Q367 59 356 199Q346 325 319 485L283 729Q281 741 275 770T266 813Q258 844 242 866Q228 885 197 895Q169 903 115 903L129 967Q160 983 219 1001Q261 1016 319 1016Q358 1016 379 1004Q403
985 416 958Q431 924 440 874Q459 769 461 748L496 506Q511 413 514 346Q518 256 518 236V201Q516 190 516 174H528L635 373Q694 484 750 608Q795 710 819 791Q845 870 854 926Q863 983 866 1020L1044 989V918L516 -47Q451 -161 420 -207Q377 -269 324 -319Q269
-368 217 -393Q159 -421 90 -436L55 -313Q110 -302 168 -279Q219 -257 264 -221Q309 -189 350 -131Q386 -84 430 2Z" />
<glyph unicode="z" glyph-name="z" horiz-adv-x="1093" d="M1032 922L274 174Q389 174 473 166Q558 158 633 158Q694 158 750 193Q806 229 850 313L913 297Q900 254 860 137Q836 72 809 39Q783 2 752 -10Q715 -23 674 -23Q614 -23 561 -8Q522 1 459 20L358 51Q307
63 258 63Q207 63 180 43Q151 23 135 0H43L55 80L793 829Q729 829 698 831Q680 833 648 834T604 836Q590 837 563 838T522 840Q498 842 461 842Q396 842 358 803Q320 760 291 698L217 709Q252 875 301 948Q351 1022 442 1022Q492 1022 545 1010Q551 1009 590 999T651
983L754 954Q802 942 842 942Q910 942 952 1006H1047L1032 922Z" />
</font>
</defs>
</svg>
