<?xml version="1.0" standalone="no"?> <!DOCTYPE svg PUBLIC "-//W3C//DTD SVG 1.0//EN" "http://www.w3.org/TR/2001/REC-SVG-20010904/DTD/svg10.dtd" > <svg xmlns="http://www.w3.org/2000/svg" width="100%" height="100%">
<defs >
<font id="metaseriflfbolditalic" horiz-adv-x="1073" ><font-face
    font-family="MetaSerifLf"
    units-per-em="2048"
    panose-1="2 0 5 0 0 0 0 2 0 4"
    ascent="1595"
    descent="-424"
    alphabetic="0" />
<missing-glyph horiz-adv-x="1015" d="M86 0V1411H928V0H86ZM188 102H825V1309H188V102Z" />
<glyph unicode=" " glyph-name="space" horiz-adv-x="1024" />
<glyph unicode="," glyph-name="comma" horiz-adv-x="546" d="M494 203Q506 162 506 123Q506 40 473 -27Q440 -97 381 -150Q321 -205 248 -244Q171 -283 90 -301L45 -223Q152 -193 213 -141Q274 -93 274 -39Q274 -10 260 4Q245 19 217 31Q182 46 154 78Q125 105
125 166Q125 239 176 287Q228 334 305 334Q353 334 393 317Q428 300 455 270Q474 246 494 203Z" />
<glyph unicode="-" glyph-name="hyphen" horiz-adv-x="712" d="M592 455H76L123 690H639L592 455Z" />
<glyph unicode="." glyph-name="period" horiz-adv-x="501" d="M426 240Q440 208 440 166Q440 122 426 90Q411 57 385 31Q363 8 324 -10Q282 -27 248 -27Q213 -27 174 -10Q134 8 115 31Q92 50 74 90Q59 121 59 166Q59 209 74 240Q92 279 115 301Q137 323 174 340Q206
354 248 354Q289 354 324 340Q359 324 385 301Q412 270 426 240Z" />
<glyph unicode="0" glyph-name="zero" horiz-adv-x="1298" d="M987 1384T1112 1253T1237 877Q1237 701 1198 545Q1157 381 1071 254Q984 125 852 49Q714 -29 530 -29Q428 -29 340 8Q253 42 190 111Q128 181 94 274Q59 376 59 485Q59 673 111 838Q161 1005 254
1122Q349 1247 477 1315Q603 1384 766 1384Q987 1384 1112 1253ZM432 168Q478 104 553 104Q618 104 666 135Q715 169 756 240Q790 296 817 381Q844 462 866 567Q884 662 897 776Q907 896 907 989Q907 1119 870 1180Q831 1241 754 1241Q696 1241 655 1214Q612 1188
559 1114Q525 1063 496 983Q468 910 440 799Q421 717 401 586Q387 482 387 375Q387 230 432 168Z" />
<glyph unicode="1" glyph-name="one" horiz-adv-x="872" d="M817 1358L586 254Q578 223 578 188Q578 135 616 117Q656 95 754 92L733 0H20L41 92Q108 95 152 104Q198 116 217 133Q241 151 256 184Q270 225 279 266L455 1120Q375 1077 338 1063Q263 1035 215 1024L193
1124L616 1358H817Z" />
<glyph unicode="2" glyph-name="two" horiz-adv-x="1193" d="M434 1323Q555 1382 725 1382Q817 1382 887 1362T1016 1296Q1067 1255 1100 1188Q1130 1123 1130 1032Q1130 932 1094 850Q1052 765 983 690Q911 616 803 530Q758 496 555 350L385 231H1042L969 0H45L80
158L391 414Q486 491 571 573Q645 647 694 719Q744 794 766 860Q788 934 788 1008Q788 1099 739 1145Q692 1188 602 1188Q501 1188 434 1155Q360 1120 305 1071L238 1174Q313 1261 434 1323Z" />
<glyph unicode="3" glyph-name="three" horiz-adv-x="1177" d="M764 1157Q723 1198 637 1198Q544 1198 477 1171Q412 1146 346 1102L281 1202Q366 1282 485 1331Q604 1380 743 1380Q933 1380 1026 1305Q1122 1227 1122 1085Q1122 1010 1096 954Q1069 899 1020
850Q973 806 909 770Q846 738 776 717Q902 702 977 633Q1049 561 1049 453Q1049 304 979 207Q909 106 805 47Q695 -16 573 -39Q447 -63 336 -63Q236 -63 174 -51Q116 -40 66 -23L31 100Q89 83 139 78Q191 72 264 72Q477 72 600 168Q721 263 721 457Q721 552 662
600Q604 643 498 643H440Q425 643 391 639L420 782Q440 780 477 780Q496 778 537 778Q657 778 729 844T801 1038Q801 1112 764 1157Z" />
<glyph unicode="4" glyph-name="four" horiz-adv-x="1175" d="M537 -68L618 322H14L45 459L680 1360H985L264 457H649Q673 565 688 616Q708 686 733 752Q761 822 791 872Q819 926 864 989L1083 1020L965 457H1128L1098 322H934L860 -29L537 -68Z" />
<glyph unicode="5" glyph-name="five" horiz-adv-x="1220" d="M940 717Q1028 630 1028 496Q1028 342 965 238Q899 128 797 61Q695 -5 559 -37Q427 -70 289 -70Q232 -70 168 -59Q106 -50 57 -35L29 86Q81 69 131 66Q186 59 238 59Q293 59 383 76Q462 91 535 135Q605
178 653 252Q700 326 700 440Q700 538 651 590Q603 641 494 641Q443 641 365 631Q295 619 248 598L465 1356H1178L1092 1108H543L442 772Q471 781 551 795Q606 803 672 803Q851 803 940 717Z" />
<glyph unicode="6" glyph-name="six" horiz-adv-x="1159" d="M1085 1419L1102 1311Q852 1220 684 1090Q513 955 426 768Q472 804 549 838Q622 866 731 866Q792 866 856 844Q918 820 963 778Q1011 730 1036 670Q1063 609 1063 522Q1063 392 1024 295Q983 192 909
121T731 10Q623 -29 494 -29Q283 -29 162 86T41 412Q41 620 121 786Q199 949 342 1077Q481 1202 674 1288Q880 1377 1085 1419ZM741 342Q756 406 756 487Q756 606 717 657Q675 711 600 711Q539 711 485 692Q428 672 383 641Q362 593 348 520Q332 435 332 344Q332
282 340 242Q350 190 369 162Q392 125 422 109Q453 88 502 88Q567 88 616 123Q664 157 694 215Q726 271 741 342Z" />
<glyph unicode="7" glyph-name="seven" horiz-adv-x="1114" d="M1104 1354L1022 1124Q806 901 651 598Q499 299 399 -18L61 -74Q125 94 211 260Q293 417 399 575Q502 728 612 860Q736 1003 840 1102H162L248 1354H1104Z" />
<glyph unicode="8" glyph-name="eight" horiz-adv-x="1218" d="M1128 1223Q1159 1171 1159 1104Q1159 1030 1135 975Q1109 914 1067 877Q1014 831 961 807Q904 781 825 758Q891 723 944 686Q992 654 1026 612Q1059 575 1075 522Q1090 473 1090 410Q1090 316 1049
231Q1011 153 934 92Q863 37 756 4Q651 -27 530 -27Q413 -27 319 -2Q228 23 170 66Q109 108 78 168Q47 226 47 293Q47 378 80 434Q109 491 162 535Q221 582 281 606Q352 637 418 657Q329 711 283 778Q231 848 231 961Q231 1056 270 1137Q313 1218 379 1270Q445
1325 541 1356Q632 1386 739 1386Q834 1386 911 1368Q987 1347 1042 1311Q1099 1273 1128 1223ZM731 160Q795 218 795 307Q795 352 782 385Q766 421 737 453Q703 487 649 522Q606 549 508 602Q424 543 377 471Q328 401 328 307Q328 205 381 154Q435 100 543 100Q665
100 731 160ZM858 938Q895 1005 895 1098Q895 1164 854 1210Q815 1255 719 1255Q630 1255 571 1202Q514 1151 514 1055Q514 997 561 938Q607 880 725 815Q817 866 858 938Z" />
<glyph unicode="9" glyph-name="nine" horiz-adv-x="1243" d="M1167 1120Q1198 1039 1198 938Q1198 715 1116 545Q1035 376 889 248Q746 123 543 45Q337 -36 100 -70L45 33Q174 65 297 119Q423 174 518 238Q611 300 694 389Q768 469 813 563Q766 530 700 502Q636
475 530 475Q465 475 399 498Q328 521 285 563Q233 609 203 676Q172 739 172 834Q172 954 213 1057Q255 1162 326 1231Q400 1305 500 1343Q597 1382 729 1382Q842 1382 932 1352Q1022 1316 1077 1262Q1138 1201 1167 1120ZM641 629Q764 629 858 696Q874 740 889
809Q903 875 903 958Q903 1020 895 1069Q885 1126 864 1163Q846 1197 807 1231Q770 1255 719 1255Q653 1255 608 1223Q560 1186 532 1133Q503 1076 489 1004Q475 937 475 858Q475 629 641 629Z" />
<glyph unicode="A" glyph-name="A" horiz-adv-x="1435" d="M934 207L913 383H477L397 219Q384 190 383 182Q377 167 377 152Q377 123 403 111Q427 97 489 94L471 0H18L35 94Q59 96 94 104Q116 110 139 127Q158 140 178 166Q199 194 219 231L834 1423H1090L1268
231Q1275 187 1282 168Q1288 144 1300 129Q1315 112 1333 106Q1353 97 1382 94L1364 0H782L799 94Q881 97 909 117Q936 134 936 178V188Q936 197 934 207ZM743 926L551 535H893L850 909Q842 961 842 1016Q840 1047 840 1081V1112H827Q820 1092 803 1055Q798 1044
778 1001T743 926Z" />
<glyph unicode="B" glyph-name="B" horiz-adv-x="1449" d="M324 1423H952Q1162 1423 1274 1346Q1384 1266 1384 1104Q1384 1021 1356 954Q1321 882 1274 842Q1220 794 1155 768Q1078 738 1006 733V725Q1157 710 1243 631Q1323 554 1323 432Q1323 297 1262 209Q1201
117 1081 66Q1027 42 981 31Q939 17 883 10Q846 6 776 2Q739 0 655 0H47L63 94Q145 94 182 123Q220 150 236 240L418 1178Q419 1183 421 1194T424 1210Q426 1221 426 1241Q426 1289 399 1307Q372 1322 305 1325L324 1423ZM664 793H754Q828 793 877 805Q920 814
963 850Q1007 896 1026 954Q1049 1025 1049 1098Q1049 1209 1001 1243Q952 1278 850 1278H758L664 793ZM786 651H637L537 137H647Q737 137 788 145Q846 156 887 184Q936 219 963 293Q987 364 987 449Q987 561 942 606T786 651Z" />
<glyph unicode="C" glyph-name="C" horiz-adv-x="1327" d="M743 -20Q683 -29 606 -29Q323 -29 190 119T57 528Q57 702 111 872Q161 1031 268 1165Q372 1294 522 1370Q673 1446 870 1446Q1009 1446 1110 1417Q1203 1391 1272 1341L1217 1065H997Q993 1137 989 1169Q983
1210 967 1243Q946 1274 918 1288Q886 1303 838 1303Q729 1303 645 1231T506 1040Q452 925 424 766Q395 602 395 446Q395 353 412 287Q427 221 457 186Q488 146 530 131Q576 115 629 115Q739 115 803 176Q865 233 909 362H1130L1075 80Q1039 57 989 37Q944 19 874
2Q828 -9 743 -20Z" />
<glyph unicode="D" glyph-name="D" horiz-adv-x="1523" d="M47 0L63 94Q145 94 182 123Q220 150 236 240L418 1178Q422 1198 424 1210Q426 1221 426 1241Q426 1289 399 1307Q372 1322 305 1325L324 1423H891Q1172 1423 1317 1290Q1460 1159 1460 891Q1460 657
1397 483Q1332 303 1214 180Q1118 81 987 41Q853 0 686 0H47ZM856 1280H760L539 137H637Q686 137 733 143Q777 146 819 162Q862 178 895 203Q931 231 961 274Q995 325 1024 399Q1061 506 1075 565Q1094 643 1108 758Q1120 858 1120 958Q1120 1036 1110 1104Q1099
1161 1069 1204Q1041 1242 987 1262Q935 1280 856 1280Z" />
<glyph unicode="E" glyph-name="E" horiz-adv-x="1409" d="M45 0L61 94Q143 94 180 123Q218 150 233 240L416 1178Q417 1183 419 1194T422 1210Q424 1221 424 1241Q424 1289 397 1307Q370 1322 303 1325L322 1423H1346L1303 1077H1151Q1146 1129 1139 1174Q1131
1210 1114 1237Q1093 1262 1065 1270Q1034 1278 977 1278H756L662 791H786Q833 791 866 797Q897 802 922 819Q937 830 956 864Q970 888 983 936H1118L1034 508H899Q900 511 901 519T903 532V555Q903 611 872 633Q843 653 762 653H635L535 137H786Q834 137 874 147Q913
158 942 184Q974 216 993 258Q1009 291 1034 375H1190L1118 0H45Z" />
<glyph unicode="F" glyph-name="F" horiz-adv-x="1370" d="M633 643L555 242Q549 208 549 182Q549 130 582 113Q614 94 700 94L684 0H45L61 94Q143 94 180 123Q218 150 233 240L416 1178Q417 1183 419 1194T422 1210Q424 1221 424 1241Q424 1289 397 1307Q370
1322 303 1325L322 1423H1343L1300 1073H1149Q1142 1144 1135 1176Q1123 1219 1108 1237Q1087 1262 1057 1270Q1026 1278 969 1278H756L659 780H780Q827 780 860 786Q893 793 915 809Q931 820 950 854Q963 875 977 926H1112L1028 496H893Q894 499 895 507T897 520V545Q897
599 866 621T756 643H633Z" />
<glyph unicode="G" glyph-name="G" horiz-adv-x="1423" d="M463 186Q526 111 653 111Q695 111 745 121Q789 130 821 152L883 471Q884 476 886 487T889 504Q891 514 891 535Q891 582 860 600Q827 615 745 618L766 715H1372L1352 618Q1316 618 1288 612Q1258 602
1241 588Q1226 576 1210 543Q1200 519 1190 471L1114 82Q1078 60 1012 35Q973 20 895 0Q840 -13 772 -20Q719 -29 653 -29Q349 -29 205 117Q59 263 59 528Q59 703 111 866Q162 1029 266 1159Q367 1287 526 1368Q687 1446 893 1446Q1038 1446 1145 1417Q1243 1391
1315 1341L1260 1065H1044Q1041 1188 1006 1245Q969 1300 860 1300Q747 1300 662 1233Q579 1169 518 1051Q459 933 428 778Q397 617 397 444Q397 266 463 186Z" />
<glyph unicode="H" glyph-name="H" horiz-adv-x="1789" d="M1548 1178L1366 240Q1351 149 1374 123Q1397 94 1479 94L1462 0H858L874 94Q956 94 993 123Q1029 151 1044 240L1124 653H643L563 240Q548 149 571 123Q594 94 676 94L659 0H53L70 94Q151 94 188 123Q226
150 242 240L424 1178Q439 1267 418 1294Q393 1322 311 1325L330 1423H934L915 1325Q873 1325 846 1319Q816 1309 799 1294Q779 1281 766 1249Q759 1232 745 1178L672 807H1153L1227 1178Q1242 1267 1221 1294Q1196 1322 1114 1325L1133 1423H1737L1718 1325Q1676
1325 1649 1319Q1619 1309 1602 1294Q1582 1281 1569 1249Q1558 1224 1548 1178Z" />
<glyph unicode="I" glyph-name="I" horiz-adv-x="942" d="M723 1178L541 240Q524 149 549 123Q570 94 653 94L637 0H31L47 94Q128 94 166 123T219 240L401 1178Q402 1183 404 1194T408 1210Q410 1221 410 1241Q410 1288 383 1307Q356 1322 289 1325L307 1423H911L893
1325Q852 1325 823 1319Q792 1309 776 1294Q758 1281 743 1249Q734 1228 723 1178Z" />
<glyph unicode="J" glyph-name="J" horiz-adv-x="1056" d="M852 1178L662 195Q637 71 590 -18Q546 -102 469 -164Q399 -220 293 -256Q194 -289 51 -301L20 -205Q112 -175 162 -141Q216 -109 252 -57Q282 -16 305 55Q329 141 340 205L530 1178Q530 1179 533 1191T537
1212Q539 1225 539 1241Q539 1288 512 1307Q485 1322 418 1325L436 1423H1040L1022 1325Q980 1325 952 1319Q923 1309 905 1294Q887 1281 872 1249Q863 1228 852 1178Z" />
<glyph unicode="K" glyph-name="K" horiz-adv-x="1634" d="M1321 1180L971 821L1239 195Q1262 142 1298 119Q1332 97 1397 94L1380 0H963L686 711L1141 1202Q1161 1224 1171 1243Q1180 1256 1180 1276Q1180 1327 1100 1327L1118 1423H1579L1561 1327Q1528 1324
1499 1315Q1488 1311 1446 1288Q1415 1269 1391 1243L1321 1180ZM743 1178L561 240Q558 218 555 205Q553 193 553 176Q553 128 582 113Q608 94 674 94L657 0H51L68 94Q149 94 186 123Q224 150 240 240L422 1178Q423 1183 425 1194T428 1210Q430 1221 430 1241Q430
1289 403 1307Q376 1322 309 1325L328 1423H932L913 1325Q871 1325 844 1319Q814 1309 797 1294Q777 1281 764 1249Q757 1232 743 1178Z" />
<glyph unicode="L" glyph-name="L" horiz-adv-x="1212" d="M530 137H721Q772 137 811 150Q852 162 889 193Q924 221 954 270Q986 325 1012 393H1169L1063 0H41L57 94Q139 94 176 123Q214 150 229 240L412 1178Q427 1267 406 1294Q381 1322 299 1325L317 1423H924L907
1325Q823 1322 786 1294Q748 1265 733 1178L530 137Z" />
<glyph unicode="M" glyph-name="M" horiz-adv-x="2076" d="M2015 1423L1997 1327Q1942 1324 1909 1315Q1879 1307 1858 1286Q1840 1269 1831 1241Q1824 1221 1817 1171L1700 254Q1694 204 1696 180Q1696 149 1708 131Q1719 115 1747 104Q1764 97 1815 94L1798
0H1198L1214 94Q1271 97 1294 102Q1320 107 1341 125Q1355 138 1366 170Q1373 192 1380 240L1468 885Q1475 919 1481 969Q1488 1022 1495 1053Q1504 1111 1505 1122L1513 1165H1501Q1500 1161 1495 1147T1487 1124Q1478 1103 1460 1057Q1452 1034 1425 975Q1403
919 1386 889L942 0H754L676 854L670 961Q668 995 668 1059Q668 1108 670 1126V1165H657Q656 1160 654 1144T649 1118Q636 1046 635 1042Q621 977 616 956Q612 938 605 908T596 874L420 242Q412 210 410 201Q406 175 406 166Q406 127 434 111Q463 94 530 94L512
0H53L70 94Q124 98 143 104Q171 111 193 129Q208 144 225 178Q239 211 250 254L504 1171Q518 1214 518 1253Q518 1290 489 1307Q455 1324 385 1327L403 1423H932L991 700Q993 678 999 580Q1001 547 1001 489V438Q999 424 999 406H1012Q1015 426 1042 506Q1080 611
1114 682L1468 1423H2015Z" />
<glyph unicode="N" glyph-name="N" horiz-adv-x="1687" d="M1231 0H1028L680 791Q614 939 596 1026Q591 1051 586 1075T579 1114T575 1133H563Q560 1103 557 1059Q552 1018 545 961Q538 898 532 862Q529 846 525 820T518 782L414 240Q413 236 412 229T410 217T408
207Q406 197 406 176Q406 129 434 113Q462 94 524 94L508 0H51L68 94Q149 94 186 123Q224 150 240 240L422 1178L428 1214Q430 1225 430 1241Q430 1289 403 1307Q376 1322 309 1325L328 1423H772L1071 733Q1087 697 1106 639Q1122 590 1130 553Q1140 515 1143 485Q1147
449 1147 444H1159Q1159 447 1163 487Q1169 546 1171 559Q1174 574 1178 606T1186 657Q1202 751 1206 770L1286 1178Q1287 1183 1289 1194T1292 1210Q1294 1221 1294 1241Q1294 1288 1268 1307Q1240 1322 1174 1325L1192 1423H1640L1624 1325Q1543 1322 1509 1294Q1473
1264 1458 1178L1231 0Z" />
<glyph unicode="O" glyph-name="O" horiz-adv-x="1411" d="M1311 1114Q1350 1006 1350 866Q1350 711 1307 551Q1264 394 1174 262Q1085 134 944 53Q807 -29 612 -29Q476 -29 373 14T201 135Q131 211 96 319Q61 434 61 553Q61 652 82 760Q98 853 141 965Q183 1066
242 1151Q302 1242 383 1305Q463 1367 569 1409Q670 1446 797 1446Q925 1446 1026 1409Q1134 1366 1200 1296Q1270 1223 1311 1114ZM1001 786Q1010 871 1010 967Q1010 1135 965 1219Q918 1303 797 1303Q713 1303 662 1270T569 1174Q519 1091 492 1008Q465 934 438
817Q420 733 410 618Q399 516 399 434Q399 276 449 193Q497 109 610 109Q693 109 745 141Q798 173 842 238Q884 300 920 397Q946 476 971 588Q992 686 1001 786Z" />
<glyph unicode="P" glyph-name="P" horiz-adv-x="1417" d="M616 547L557 242Q553 220 553 213Q551 203 551 182Q551 130 584 113Q616 94 702 94L686 0H47L63 94Q145 94 182 123Q220 150 236 240L418 1178L424 1214Q426 1225 426 1241Q426 1289 399 1307Q372 1322
305 1325L324 1423H901Q1144 1423 1266 1337Q1386 1252 1386 1044Q1386 896 1315 778Q1245 659 1102 600Q1024 567 950 559Q868 547 768 547H616ZM1028 872Q1057 948 1057 1051Q1057 1166 1014 1223Q968 1278 854 1278H758L645 698H741Q804 698 856 709Q905 718
948 756Q998 795 1028 872Z" />
<glyph unicode="Q" glyph-name="Q" horiz-adv-x="1398" d="M1294 1114Q1333 1010 1333 866Q1333 728 1298 582Q1262 435 1188 315Q1115 193 1001 106Q889 21 731 -6Q739 -8 765 -15T807 -27Q842 -37 899 -47Q961 -58 1001 -63Q1050 -70 1102 -70Q1132 -70 1186
-66Q1231 -61 1266 -53L1176 -283Q1146 -299 1100 -305Q1059 -313 1004 -313Q928 -313 864 -289Q804 -268 743 -229Q686 -196 631 -152Q569 -103 518 -72Q488 -50 436 -25L352 12Q341 18 314 33T272 57Q224 88 197 119Q118 200 82 311Q45 421 45 557Q45 664 66
762Q83 862 125 967Q168 1072 225 1153Q287 1244 367 1305Q448 1369 553 1409Q654 1446 782 1446Q909 1446 1010 1409Q1119 1365 1184 1296Q1255 1222 1294 1114ZM983 786Q993 896 993 967Q993 1138 948 1219Q902 1303 780 1303Q698 1303 645 1270Q596 1238 553
1174Q506 1098 475 1008Q444 921 422 817Q403 725 393 618Q383 510 383 434Q383 275 432 193Q478 109 592 109Q668 109 721 135Q775 161 825 238Q867 304 901 397Q929 478 952 588Q974 682 983 786Z" />
<glyph unicode="R" glyph-name="R" horiz-adv-x="1458" d="M758 1278L655 741H762Q904 741 981 834Q1057 922 1057 1077Q1057 1184 1010 1233Q962 1278 850 1278H758ZM627 598L557 240Q554 218 551 205Q549 193 549 176Q549 128 578 113Q604 94 670 94L653 0H47L63
94Q145 94 182 123Q220 150 236 240L418 1178Q419 1183 421 1194T424 1210Q426 1221 426 1241Q426 1289 399 1307Q372 1322 305 1325L324 1423H920Q1146 1423 1266 1341Q1386 1258 1386 1081Q1386 980 1352 901Q1317 823 1255 770Q1197 717 1112 682Q1032 648 930
639V631Q983 617 1038 578Q1095 534 1120 485Q1148 441 1178 369L1231 213Q1254 150 1276 125Q1300 94 1364 94L1348 0H952Q949 12 938 56T920 121L889 223L858 322L823 424Q806 470 786 506Q769 535 745 557Q721 577 694 586T627 598Z" />
<glyph unicode="S" glyph-name="S" horiz-adv-x="1220" d="M356 162Q405 92 532 92Q640 92 709 152Q776 209 776 330Q776 419 733 471Q693 521 594 565L463 625Q351 675 283 764T215 993Q215 1101 254 1182Q294 1270 360 1325Q426 1381 524 1415Q618 1446 735
1446Q830 1446 901 1434Q966 1422 1024 1405Q1066 1393 1110 1370Q1156 1342 1165 1335L1112 1059H911V1075Q911 1196 864 1257Q818 1317 707 1317Q602 1317 543 1260Q483 1200 483 1108Q483 1026 530 977Q573 934 649 897L784 838Q853 807 901 776Q956 742 993
700Q1032 657 1055 594Q1075 535 1075 451Q1075 338 1034 248Q996 159 920 96Q847 36 743 4Q640 -29 514 -29Q333 -29 213 12Q98 52 47 98L98 381H307V362Q307 234 356 162Z" />
<glyph unicode="T" glyph-name="T" horiz-adv-x="1323" d="M152 1423H1294L1237 1044H1083Q1082 1063 1081 1100T1079 1155Q1076 1196 1063 1227Q1049 1253 1022 1266Q995 1278 944 1278H858L657 240Q651 203 651 178Q651 128 682 113Q711 94 786 94L770 0H131L147
94Q194 94 227 100Q254 105 281 123Q296 134 315 168Q325 189 336 240L537 1278H449Q398 1278 365 1266Q331 1253 307 1227Q282 1197 262 1153L215 1044H61L152 1423Z" />
<glyph unicode="U" glyph-name="U" horiz-adv-x="1470" d="M449 190Q503 139 627 139Q762 139 840 221Q915 301 948 473L1083 1178Q1092 1211 1092 1243Q1092 1289 1063 1307Q1035 1322 969 1325L987 1423H1438L1419 1325Q1339 1322 1307 1294Q1270 1267 1253
1178L1116 463Q1070 223 940 96Q812 -29 573 -29Q316 -29 197 70Q75 169 72 348Q72 430 90 535L215 1178Q230 1268 207 1294Q182 1322 102 1325L121 1423H725L709 1325Q666 1325 639 1319Q609 1309 590 1294Q570 1281 557 1249Q548 1228 537 1178L408 514Q389 419
389 344Q392 238 449 190Z" />
<glyph unicode="V" glyph-name="V" horiz-adv-x="1433" d="M496 1204L569 543Q570 535 571 514T573 483L578 410Q579 399 580 377T582 344V305H594Q597 319 625 383Q661 465 702 547L1032 1204Q1053 1242 1053 1268Q1053 1322 942 1325L961 1423H1417L1397 1325Q1370
1323 1341 1315Q1316 1309 1296 1294Q1278 1281 1257 1257Q1243 1238 1219 1192L590 0H332L164 1190Q159 1227 152 1253Q145 1277 133 1292Q123 1305 102 1315Q75 1323 53 1325L72 1423H651L633 1325Q548 1322 520 1294Q490 1264 496 1204Z" />
<glyph unicode="W" glyph-name="W" horiz-adv-x="2011" d="M1208 1423L1247 588Q1249 565 1249 518V352Q1249 305 1247 295H1260Q1262 303 1272 338Q1274 343 1281 367T1294 408L1325 496Q1329 509 1335 525T1348 561T1360 592L1595 1194Q1612 1242 1612 1262Q1612
1295 1585 1311Q1560 1322 1501 1325L1518 1423H1974L1958 1325Q1924 1322 1898 1313Q1873 1305 1851 1290Q1830 1275 1815 1247Q1794 1217 1780 1182L1280 0H979L944 674Q942 692 942 729V786Q942 870 944 905Q945 917 945 933T946 958T948 971H936Q931 951 924
930L903 862Q898 845 874 778Q864 748 840 690L541 0H236L178 1190Q175 1237 170 1255Q164 1278 152 1294Q140 1309 119 1315Q90 1323 70 1325L88 1423H659L641 1325Q562 1322 532 1298Q502 1271 502 1214V1208L520 586V549V471Q518 444 518 395Q517 384 516 363T514
332Q512 313 512 293H524Q528 309 537 336Q557 402 559 408L592 496Q609 547 627 590L969 1423H1208Z" />
<glyph unicode="X" glyph-name="X" horiz-adv-x="1624" d="M1346 1196L981 774L1217 227Q1248 154 1280 129Q1308 103 1370 94L1354 0H758L774 94Q889 94 889 166Q889 193 877 223L737 563H727L467 233Q438 195 430 170Q420 140 428 127Q437 112 461 102Q480 94
518 94L502 0H49L66 94Q94 97 123 106Q153 119 172 131Q199 148 223 172Q246 194 279 236L668 713L461 1200Q450 1226 432 1257Q414 1284 403 1294Q390 1308 369 1315Q338 1323 324 1325L344 1423H918L899 1325Q784 1322 784 1257Q784 1234 797 1204L911 913H924L1147
1196Q1174 1234 1180 1247Q1188 1260 1188 1280Q1188 1322 1104 1325L1122 1423H1569L1552 1325Q1527 1322 1497 1315Q1463 1304 1448 1292Q1426 1278 1399 1253Q1375 1234 1346 1196Z" />
<glyph unicode="Y" glyph-name="Y" horiz-adv-x="1374" d="M326 240L383 535L193 1194Q184 1229 170 1257Q157 1281 143 1294Q130 1309 111 1315Q80 1323 63 1325L82 1423H637L618 1325Q541 1322 522 1288Q504 1255 520 1194L641 707H651L954 1196Q983 1243 983
1272Q983 1322 891 1325L909 1423H1354L1337 1325Q1309 1322 1284 1315Q1256 1308 1241 1294Q1222 1280 1200 1257Q1180 1237 1155 1198L707 539L649 240Q634 148 659 123Q685 94 778 94L762 0H123L139 94Q186 94 219 100Q247 105 272 123Q290 135 305 168Q313
186 326 240Z" />
<glyph unicode="Z" glyph-name="Z" horiz-adv-x="1425" d="M53 0L74 115L961 1290H713Q610 1290 555 1235Q495 1175 444 1059H285L377 1423H1368L1346 1309L465 137H748Q810 137 850 152Q894 164 928 195Q964 225 991 272Q1022 323 1049 389H1202L1104 0H53Z" />
<glyph unicode="a" glyph-name="a" horiz-adv-x="1239" d="M465 1004Q583 1069 711 1069Q797 1069 846 1038Q893 1006 909 952Q925 979 948 1004Q989 1043 991 1044H1176Q1152 996 1130 930Q1113 874 1087 774L977 283Q965 234 965 203Q965 166 987 150Q1009 133
1059 133Q1077 133 1087 135Q1108 135 1118 137L1124 53Q1048 14 997 0Q932 -18 858 -18Q756 -18 715 33Q670 84 670 182Q670 195 672 201V211Q606 107 518 41Q429 -27 311 -27Q189 -27 123 51T57 268Q57 421 111 569Q159 706 256 825Q343 934 465 1004ZM817 879Q786
922 717 922Q647 922 582 866T471 723Q422 635 393 526Q365 416 365 311Q365 232 385 201Q406 166 444 166Q475 166 508 186Q547 212 575 242Q614 279 643 319Q654 335 707 412L817 879Z" />
<glyph unicode="b" glyph-name="b" horiz-adv-x="1210" d="M811 33Q696 -29 565 -29Q458 -29 395 8Q334 46 311 98Q303 73 281 45Q275 38 268 28T254 11T244 0H51Q72 49 94 129Q112 187 133 293L319 1171Q320 1178 323 1193T328 1217Q330 1231 330 1253Q330 1304
301 1327Q275 1347 209 1350L229 1442L608 1495H635Q636 1492 637 1485T640 1471T643 1456Q647 1424 647 1393Q647 1350 641 1288Q630 1216 616 1149L543 821Q574 870 614 918Q660 966 700 995Q737 1022 799 1049Q852 1067 913 1067Q1030 1067 1102 983Q1171 899
1171 723Q1171 567 1126 436Q1080 295 1001 197Q920 94 811 33ZM444 131Q474 115 516 115Q595 115 659 170Q722 227 762 311Q807 411 825 502Q846 596 846 702Q846 793 819 821Q792 852 752 852Q727 852 690 836Q656 819 627 793Q599 770 563 727Q525 679 508 651L406
168Q415 147 444 131Z" />
<glyph unicode="c" glyph-name="c" horiz-adv-x="1030" d="M414 1010Q527 1069 674 1069Q796 1069 868 1042Q939 1016 979 983L936 760H731V795Q731 863 715 901Q696 938 641 938Q580 938 530 891Q480 845 444 766Q408 686 387 586Q367 489 367 375Q367 150 549
150Q628 150 686 178Q748 212 797 248L862 154Q840 126 795 86Q758 55 707 29Q662 5 594 -12Q528 -29 453 -29Q262 -29 162 82Q57 190 57 393Q57 510 100 633Q140 751 221 852Q298 948 414 1010Z" />
<glyph unicode="d" glyph-name="d" horiz-adv-x="1253" d="M694 412L797 885Q780 904 758 913Q739 922 700 922Q625 922 561 870Q499 821 444 731Q392 644 365 537Q334 431 334 315Q334 236 356 201Q379 166 418 166Q456 166 492 186Q536 216 563 242Q597 274
631 319L694 412ZM666 197V211Q601 108 504 41Q404 -27 289 -27Q168 -27 96 51Q27 126 27 270Q27 435 84 575Q140 721 233 829Q329 940 446 1004Q567 1069 698 1069Q784 1069 834 1036L862 1171Q863 1180 866 1195T870 1217Q872 1231 872 1253Q872 1305 844 1327Q817
1347 750 1350L772 1442L1147 1495H1174Q1182 1456 1182 1454Q1186 1418 1186 1389Q1186 1344 1180 1286Q1176 1245 1157 1149L971 283Q968 259 965 240Q961 210 961 203Q961 163 981 147Q1001 133 1051 133Q1069 133 1079 135Q1100 135 1112 137L1118 53Q1040
15 987 0Q922 -18 850 -18Q751 -18 709 35Q664 86 664 174Q664 186 666 197Z" />
<glyph unicode="e" glyph-name="e" horiz-adv-x="1075" d="M360 395V352Q360 259 406 207Q451 152 549 152Q638 152 707 178Q783 209 850 270L913 182Q828 82 713 27Q595 -29 457 -29Q253 -29 156 78Q57 186 57 377Q57 509 104 641Q151 768 233 862T428 1014Q538
1069 668 1069Q742 1069 811 1053Q880 1035 924 1004Q969 970 997 915Q1022 865 1022 786Q1022 687 973 623Q922 557 838 516Q750 473 643 459Q517 442 414 442H365Q360 412 360 395ZM395 567Q743 567 743 825Q743 877 719 907Q690 936 649 936Q603 936 565 909Q524
881 492 834Q460 788 430 717Q401 644 387 567H395Z" />
<glyph unicode="f" glyph-name="f" horiz-adv-x="1226" d="M754 893L561 -70Q527 -230 430 -305Q332 -385 186 -385Q130 -385 88 -375Q53 -367 20 -350V-272Q79 -269 127 -256Q167 -248 197 -221Q222 -199 240 -156Q253 -120 266 -55L453 893H324L348 995L483
1040L514 1174Q531 1249 573 1315Q616 1380 670 1419Q726 1458 799 1481Q866 1501 946 1501Q1022 1501 1096 1489Q1167 1474 1214 1452L1180 1257H995Q995 1316 983 1343Q968 1372 928 1372Q894 1372 868 1348Q844 1322 827 1251L784 1042H1034L971 893H754Z" />
<glyph unicode="g" glyph-name="g" horiz-adv-x="1384" d="M725 -391Q618 -414 506 -414Q285 -414 166 -365Q47 -319 47 -207Q47 -145 86 -106Q125 -69 166 -49L367 -45Q349 -67 336 -100Q324 -132 324 -172Q324 -238 373 -262Q416 -289 518 -289Q799 -289 799
-115Q799 -56 752 -31Q707 -9 612 0Q399 19 362 25Q283 34 242 70Q201 103 201 180Q201 278 274 336Q350 398 463 424Q367 444 307 514Q248 579 248 690Q248 776 283 848Q315 916 381 967Q446 1016 530 1042Q612 1069 719 1069Q780 1069 823 1061Q879 1051 918
1042Q956 1034 1001 1024Q1037 1016 1073 1016Q1128 1016 1180 1038Q1238 1065 1276 1096L1341 899Q1297 874 1262 868Q1229 860 1184 860Q1158 860 1120 864Q1089 867 1057 883Q1088 854 1104 815Q1122 769 1122 711Q1122 656 1098 600Q1073 543 1018 498Q958
450 870 424Q772 395 647 395Q629 395 621 397H594Q546 384 512 367Q475 345 475 317Q475 300 485 287Q498 273 524 270L772 244Q836 238 895 223Q950 208 991 178Q1030 149 1057 100Q1079 53 1079 -16Q1079 -128 1034 -199Q990 -274 909 -322Q829 -370 725 -391ZM575
553Q610 518 662 518Q709 518 743 541Q776 561 799 602Q820 643 829 694Q840 749 840 803Q840 876 807 909T717 942Q677 942 641 920Q607 898 586 860Q559 819 551 770Q539 718 539 659Q539 586 575 553Z" />
<glyph unicode="h" glyph-name="h" horiz-adv-x="1189" d="M702 289L801 715Q807 742 807 766Q807 827 748 827T616 762Q542 691 483 602L352 0H53L307 1171Q308 1180 311 1195T315 1217Q317 1231 317 1253Q317 1305 289 1327Q262 1347 195 1350L217 1442L594
1495H621Q629 1456 629 1454Q633 1418 633 1389Q633 1344 627 1286Q623 1245 604 1149L526 799Q595 911 702 993Q803 1069 920 1069Q1025 1069 1073 1012Q1122 954 1122 860Q1122 829 1120 815Q1115 780 1112 768L999 283Q987 231 987 199Q987 162 1008 147Q1025
133 1073 133H1104Q1113 133 1143 137L1149 53Q1073 16 1016 0Q952 -18 879 -18Q779 -18 733 31Q686 76 686 166Q686 214 702 289Z" />
<glyph unicode="i" glyph-name="i" horiz-adv-x="630" d="M477 778L362 283Q361 276 359 267T355 250T352 236Q348 206 348 199Q348 133 432 133Q457 133 467 135Q489 135 504 137L512 53Q431 15 377 0Q310 -18 236 -18Q139 -18 92 29Q45 74 45 166Q45 214 61
289L170 729Q182 776 182 807Q182 859 147 885Q112 907 37 907L55 987Q103 1014 172 1034Q235 1055 315 1055Q401 1055 446 1016Q492 976 492 889Q492 836 477 778ZM537 1464Q586 1412 586 1341Q586 1305 573 1276Q558 1242 537 1221Q510 1197 481 1186Q448 1171
412 1171Q341 1171 291 1221Q240 1268 240 1341T291 1464Q343 1513 416 1513Q488 1513 537 1464Z" />
<glyph unicode="j" glyph-name="j" horiz-adv-x="864" d="M727 778L565 -8Q546 -104 508 -168Q465 -240 408 -283Q346 -329 254 -365Q182 -392 43 -418L10 -305Q78 -283 121 -258Q161 -236 195 -197Q221 -161 244 -104Q263 -51 279 29L418 729Q419 737 422 751T426
770Q428 782 428 805Q428 861 395 885Q360 907 285 907L303 987Q351 1014 420 1034Q486 1055 563 1055Q651 1055 696 1016Q739 976 739 885Q739 840 727 778ZM821 1409Q834 1372 834 1341Q834 1308 821 1276Q806 1242 784 1221Q759 1197 729 1186Q696 1171 659
1171Q587 1171 539 1221Q487 1269 487 1341T539 1464Q589 1513 664 1513Q701 1513 731 1501Q764 1485 784 1464Q806 1441 821 1409Z" />
<glyph unicode="k" glyph-name="k" horiz-adv-x="1214" d="M602 1149L354 0H55L307 1171Q317 1229 317 1251Q317 1305 289 1327Q259 1347 195 1350L217 1442L594 1495H621Q622 1492 623 1485T626 1471T629 1456Q633 1424 633 1393Q633 1350 627 1288Q620 1243
602 1149ZM606 188L494 551L899 1042H1192L1174 954Q1102 954 1020 899Q937 843 854 754L756 649L893 262Q921 186 944 160Q970 131 1026 131H1049Q1053 131 1085 135L1094 57Q1034 20 969 2Q904 -16 846 -16Q800 -16 760 -6Q726 2 696 29Q669 50 647 90Q621 140
606 188Z" />
<glyph unicode="l" glyph-name="l" horiz-adv-x="626" d="M545 1149L358 283Q346 231 346 199Q346 164 367 150Q386 133 434 133Q455 133 465 135Q487 135 502 137L510 53Q433 16 375 0Q308 -18 236 -18Q134 -18 88 31Q43 75 43 170Q43 183 47 223Q51 267 57 289L248
1171Q249 1180 252 1195T256 1217Q258 1231 258 1253Q258 1306 229 1327Q203 1347 137 1350L158 1442L537 1495H563Q564 1492 565 1485T568 1471T571 1456Q575 1424 575 1393Q575 1344 569 1286Q559 1218 545 1149Z" />
<glyph unicode="m" glyph-name="m" horiz-adv-x="1792" d="M1583 0Q1518 -18 1446 -18Q1345 -18 1298 29T1251 166Q1251 216 1268 289L1366 709Q1372 736 1372 758Q1372 821 1311 821Q1285 821 1255 805Q1229 789 1194 758Q1153 715 1133 688Q1108 659 1069 606L944
0H645L795 707Q801 734 801 760Q801 821 739 821Q713 821 684 805Q654 787 623 756Q590 726 559 686Q522 640 498 602L369 0H72L233 756Q240 784 240 809Q240 860 209 883Q174 904 98 907L117 987Q155 1008 236 1034Q296 1055 375 1055Q446 1055 489 1012Q530 965
530 862Q530 828 524 784Q601 911 696 991Q791 1069 905 1069Q1007 1069 1057 1004Q1106 940 1106 844V819Q1105 814 1104 805T1102 791Q1132 839 1182 899Q1222 946 1274 987Q1319 1024 1374 1047Q1429 1069 1485 1069Q1591 1069 1638 1012Q1688 953 1688 860Q1688
829 1686 815Q1685 810 1682 794T1677 768L1565 283Q1552 232 1552 199Q1552 164 1573 147Q1593 133 1640 133Q1663 133 1677 135Q1702 135 1708 137L1714 53Q1636 15 1583 0Z" />
<glyph unicode="n" glyph-name="n" horiz-adv-x="1230" d="M711 289L811 715Q817 742 817 764Q817 793 805 811Q789 827 756 827Q696 827 625 762Q547 687 492 602L362 0H66L227 756Q233 786 233 809Q233 860 203 883Q168 904 92 907L111 987Q148 1008 229 1034Q289
1055 369 1055Q440 1055 483 1012Q524 965 524 862Q524 828 518 784Q594 910 700 991Q804 1069 928 1069Q1034 1069 1081 1012Q1130 954 1130 860Q1130 829 1128 815Q1123 780 1120 768L1010 283Q997 232 997 199Q997 165 1018 150Q1037 133 1083 133Q1104 133
1114 135Q1137 135 1151 137L1157 53Q1081 16 1024 0Q960 -18 889 -18Q788 -18 741 29T694 166Q694 216 711 289Z" />
<glyph unicode="o" glyph-name="o" horiz-adv-x="1136" d="M1044 829Q1075 751 1075 643Q1075 515 1040 393Q1005 273 930 178Q858 86 745 29Q633 -29 483 -29Q386 -29 307 2Q231 29 174 86Q119 141 90 219Q59 298 59 391Q59 518 98 641Q137 765 209 858Q282 954
393 1012Q498 1069 645 1069Q744 1069 819 1042Q898 1015 956 963Q1010 912 1044 829ZM758 602Q766 667 766 745Q766 845 735 891Q706 936 637 936Q585 936 545 907Q503 876 469 801Q441 736 428 688Q410 625 397 555Q387 508 375 414Q367 351 367 274Q367 100
494 100Q537 100 582 125Q624 151 657 227Q678 268 700 332Q721 395 735 461Q748 518 758 602Z" />
<glyph unicode="p" glyph-name="p" horiz-adv-x="1394" d="M557 -8L522 -166Q518 -190 516 -203Q512 -223 512 -238Q512 -279 539 -293Q559 -306 625 -309L602 -401H45L66 -309Q104 -309 131 -303Q156 -297 172 -281Q191 -260 199 -236Q215 -185 219 -166L416
756Q422 786 422 811Q422 861 391 883Q361 904 283 907L299 987Q337 1008 418 1034Q478 1055 557 1055Q632 1055 678 1010Q723 965 723 856V834Q723 819 721 813Q754 865 795 911Q833 956 885 991Q926 1022 987 1047Q1037 1067 1102 1067Q1220 1067 1290 985T1360
750Q1360 593 1311 449Q1257 302 1171 203Q1085 98 961 35Q839 -29 694 -29Q600 -29 557 -8ZM696 651L590 143Q618 96 688 96Q774 96 840 156Q905 215 948 305Q992 396 1014 502Q1034 603 1034 702Q1034 792 1008 821Q980 852 940 852Q914 852 879 836Q848 821
815 793Q782 764 752 727Q719 688 696 651Z" />
<glyph unicode="q" glyph-name="q" horiz-adv-x="1220" d="M567 -166L664 211Q602 112 508 41Q414 -27 299 -27Q178 -27 109 51Q41 126 41 268Q41 426 96 569Q151 714 246 825Q335 932 459 1004Q580 1069 707 1069Q793 1069 842 1038Q890 1005 905 952Q917 975
944 1004Q966 1026 987 1044H1171Q1146 992 1126 930Q1109 874 1083 774L868 -166Q858 -224 858 -240Q858 -281 883 -293Q901 -306 965 -309L942 -401H381L403 -309Q447 -309 471 -301Q496 -295 516 -279Q535 -258 545 -236Q566 -169 567 -166ZM813 879Q782 922
713 922Q639 922 573 868Q511 819 459 729Q407 636 381 532Q350 424 350 311Q350 235 373 201Q394 166 432 166Q467 166 500 186Q544 216 569 242Q610 281 639 319Q662 350 702 412L813 879Z" />
<glyph unicode="r" glyph-name="r" horiz-adv-x="948" d="M66 0L227 756Q233 786 233 809Q233 860 203 883Q168 904 92 907L111 987Q148 1008 229 1034Q289 1055 369 1055Q440 1055 479 1004Q516 952 516 846Q516 810 510 764Q530 812 575 885Q605 933 651 981Q688
1018 739 1047Q788 1069 838 1069Q857 1069 887 1065Q903 1063 932 1049L858 739Q832 751 803 758Q769 762 745 762Q692 762 651 748Q604 731 569 696Q529 656 504 596Q476 533 455 430L362 0H66Z" />
<glyph unicode="s" glyph-name="s" horiz-adv-x="1005" d="M758 74Q631 -29 408 -29Q256 -29 174 4Q88 39 49 66L84 287H270V279Q270 195 307 147Q344 102 434 102Q507 102 567 133Q623 162 623 246Q623 302 588 332Q547 364 489 383L401 414Q296 446 233 516Q170
582 170 707Q170 792 205 864Q238 931 299 977Q353 1020 438 1047Q523 1069 610 1069Q743 1069 821 1042Q914 1010 948 989L911 772H731Q728 853 698 897Q666 942 580 942Q513 942 463 907Q414 871 414 803Q414 762 444 733Q469 709 532 686L623 655Q758 610 821
541Q885 471 885 348Q885 175 758 74Z" />
<glyph unicode="t" glyph-name="t" horiz-adv-x="784" d="M760 1042L700 893H483L365 334Q352 275 352 233Q352 180 377 156Q397 129 457 129Q490 129 522 137Q561 144 592 156L608 59Q547 17 465 -6Q378 -29 307 -29Q177 -29 113 29T49 184Q49 245 68 330L186
893H66L86 995L231 1042Q261 1124 305 1202Q350 1283 410 1333L608 1350Q605 1341 598 1320T586 1286Q569 1235 561 1208Q553 1182 537 1124Q528 1096 516 1042H760Z" />
<glyph unicode="u" glyph-name="u" horiz-adv-x="1210" d="M676 190V203Q607 98 514 35Q420 -29 301 -29Q191 -29 139 29Q88 86 88 182Q88 232 100 287L205 729Q209 742 213 772Q215 784 215 807Q215 863 182 885Q147 907 76 907L92 987Q144 1014 209 1034Q269
1055 352 1055T481 1012Q526 970 526 881Q526 867 522 829Q520 811 512 772L408 319Q399 291 399 254Q399 220 416 203T465 186Q495 186 528 207Q552 220 594 256Q624 283 657 328Q673 347 715 412L848 1042H1141L983 283Q973 225 973 205Q973 166 995 150Q1018
133 1069 133Q1085 133 1096 135Q1116 135 1126 137L1133 53Q1060 16 1004 0Q940 -18 864 -18Q767 -18 721 31Q674 80 674 172Q674 184 676 190Z" />
<glyph unicode="v" glyph-name="v" horiz-adv-x="1107" d="M281 -2L205 737Q203 751 200 780T195 821Q188 855 174 874Q162 892 129 903Q105 911 51 911L68 991Q102 1013 178 1036Q244 1055 309 1055Q388 1055 430 1008Q470 959 479 844L510 506L516 428Q518 403
518 362Q518 307 516 289Q515 282 515 273T514 258T512 250H524L643 498Q676 566 725 682Q748 735 778 827Q798 894 807 948Q813 984 817 1057L1079 1028V940L516 -2H281Z" />
<glyph unicode="w" glyph-name="w" horiz-adv-x="1699" d="M287 -4L219 717Q213 772 207 815Q201 856 186 874Q174 893 141 903Q117 911 63 911L80 991Q114 1013 190 1036Q257 1055 322 1055Q399 1055 440 1008Q480 959 489 844L520 545Q526 478 526 424Q526 376
522 332Q519 295 516 287H528L846 1042H1069L1112 557Q1117 513 1122 424Q1124 387 1124 334V307Q1122 297 1122 287H1135L1245 520Q1288 609 1319 692Q1350 781 1362 831Q1379 904 1384 950Q1389 984 1393 1057L1653 1028V940L1112 -4H889L852 432Q848 478 848
504Q846 528 846 569Q846 623 848 647L852 692H844L528 -4H287Z" />
<glyph unicode="x" glyph-name="x" horiz-adv-x="1300" d="M514 514L414 793Q396 838 383 862Q369 886 348 901Q325 914 301 918Q265 922 231 922L246 1001Q281 1021 346 1038Q406 1055 483 1055Q565 1055 608 1024Q648 994 674 909L739 700L963 1042H1245L1227
950Q1149 941 1094 903Q1045 870 979 791L788 553L893 248Q913 181 942 152Q965 125 1026 125Q1044 125 1055 127Q1075 127 1085 129L1098 43Q1097 43 1076 35T1042 23Q1022 15 975 2Q930 -10 905 -12Q869 -18 836 -18Q747 -18 702 20Q653 61 627 156L563 369L324
0H51L70 100Q105 105 139 119Q171 128 199 150Q239 181 258 201Q279 222 324 276L514 514Z" />
<glyph unicode="y" glyph-name="y" horiz-adv-x="1208" d="M518 27L393 20Q390 105 381 215Q369 354 352 459L311 754Q298 827 295 838Q286 867 268 885Q248 902 225 907Q193 911 162 911L176 993Q206 1009 281 1034Q341 1055 418 1055Q469 1055 498 1040Q528
1025 549 991Q567 962 582 905Q598 809 602 780L631 555Q643 447 643 367Q643 316 639 262Q638 251 631 201H643L731 381Q796 516 836 621Q870 709 895 803Q914 874 924 944Q930 1005 930 1057L1192 1028V940L672 -23Q572 -210 449 -305Q328 -400 170 -424L57 -223Q109
-214 199 -195Q269 -178 328 -152Q392 -121 436 -82Q484 -40 518 27Z" />
<glyph unicode="z" glyph-name="z" horiz-adv-x="1169" d="M1087 909L375 254Q436 260 485 260Q571 260 623 252Q683 242 721 242Q760 242 791 248Q816 251 846 268Q872 288 889 309Q904 333 928 379L1010 354Q987 235 961 164Q927 85 891 49Q849 4 805 -10Q749
-27 696 -27Q622 -27 578 -12Q518 6 487 20Q471 28 406 53Q366 68 309 68Q266 68 227 51Q191 35 164 0H47L72 131L760 774Q670 777 594 784Q519 791 479 791Q418 791 371 766Q321 739 295 657L201 676Q216 861 293 961Q368 1057 506 1057Q572 1057 618 1042Q653
1032 715 1012Q745 999 799 979Q835 965 872 965T938 981Q962 994 1008 1042H1116L1087 909Z" />
</font>
</defs>
</svg>
