<?xml version="1.0" standalone="no"?> <!DOCTYPE svg PUBLIC "-//W3C//DTD SVG 1.0//EN" "http://www.w3.org/TR/2001/REC-SVG-20010904/DTD/svg10.dtd" > <svg xmlns="http://www.w3.org/2000/svg" width="100%" height="100%">
<defs >
<font id="metaseriflfbook" horiz-adv-x="979" ><font-face
    font-family="MetaSerifLf-Book"
    units-per-em="2048"
    panose-1="2 0 5 0 0 0 0 2 0 4"
    ascent="1542"
    descent="-436"
    alphabetic="0" />
<missing-glyph horiz-adv-x="1132" d="M145 0V1411H987V0H145ZM248 102H885V1309H248V102Z" />
<glyph unicode=" " glyph-name="space" horiz-adv-x="1024" />
<glyph unicode="," glyph-name="comma" horiz-adv-x="608" d="M399 213Q446 154 446 63Q446 2 426 -51Q407 -105 367 -156Q321 -207 274 -238Q219 -275 154 -293L113 -229Q200 -197 248 -150Q293 -105 293 -59Q293 -31 274 -18Q259 -9 219 8Q187 22 162 47Q133
76 133 127Q133 187 176 229Q217 270 281 270Q355 270 399 213Z" />
<glyph unicode="-" glyph-name="hyphen" horiz-adv-x="641" d="M528 481H113V627H528V481Z" />
<glyph unicode="." glyph-name="period" horiz-adv-x="557" d="M383 227Q424 184 424 121T383 14Q342 -29 279 -29Q215 -29 174 14Q133 58 133 121T174 227Q214 270 279 270Q343 270 383 227Z" />
<glyph unicode="0" glyph-name="zero" horiz-adv-x="1175" d="M1057 940Q1092 800 1092 659Q1092 501 1053 375Q1013 250 944 160Q876 70 784 25Q690 -23 588 -23Q485 -23 391 27Q300 72 231 164Q166 245 123 383Q84 504 84 672Q84 834 123 963Q165 1097 229 1182Q297
1271 389 1321Q478 1370 584 1370Q700 1370 795 1315Q891 1259 954 1165Q1019 1069 1057 940ZM803 213Q881 354 881 647Q881 971 799 1120Q715 1272 584 1272Q422 1272 358 1128Q291 985 291 698Q291 534 309 414Q329 293 365 219Q401 142 457 109Q513 74 588 74Q723
74 803 213Z" />
<glyph unicode="1" glyph-name="one" horiz-adv-x="833" d="M549 1346V221Q549 172 557 147Q567 118 588 102Q611 86 649 80Q678 74 748 70V0H145V70Q219 74 250 80Q290 86 315 102Q339 117 352 147Q362 179 362 223V1157Q285 1118 246 1102Q196 1082 123 1059L96
1126L430 1346H549Z" />
<glyph unicode="2" glyph-name="two" horiz-adv-x="915" d="M252 1323Q343 1368 467 1368Q567 1368 639 1341Q707 1316 764 1264Q812 1219 842 1147Q868 1079 868 995Q868 896 829 811Q790 719 721 629Q649 534 561 446L367 262L244 150H895L862 0H49V94L305 354Q396
447 459 518Q536 609 571 670Q616 745 641 823Q666 903 666 989Q666 1114 602 1178Q537 1243 442 1243Q334 1243 266 1208Q202 1178 133 1122L78 1204Q154 1277 252 1323Z" />
<glyph unicode="3" glyph-name="three" horiz-adv-x="985" d="M616 1184Q558 1237 453 1237Q341 1237 266 1206Q191 1174 139 1135L76 1214Q159 1279 258 1323Q358 1364 475 1364Q653 1364 760 1280Q864 1194 864 1044Q864 928 797 846Q731 761 600 723Q742 696
821 612Q901 529 901 414Q901 297 850 211Q795 119 715 59Q633 -1 526 -33Q420 -66 313 -66Q167 -66 66 -35L43 53Q108 41 147 39Q199 33 248 33Q348 33 430 57Q520 85 573 131Q635 180 668 248Q700 313 700 406Q700 484 680 530Q658 581 618 608Q579 636 518 649Q450
659 379 659H336Q329 658 312 657T287 655V760Q305 758 340 758Q356 756 399 756Q535 756 604 819Q676 882 676 1038Q676 1127 616 1184Z" />
<glyph unicode="4" glyph-name="four" horiz-adv-x="1103" d="M674 -61V319H49V406L510 1350H711L197 420H674Q677 745 754 985L860 1020V420H1032V319H860V-23L674 -61Z" />
<glyph unicode="5" glyph-name="five" horiz-adv-x="962" d="M850 580Q879 503 879 422Q879 303 831 209Q783 117 702 55Q625 -5 520 -37Q416 -70 305 -70Q252 -70 229 -68Q194 -65 168 -59Q142 -56 117 -49Q107 -47 66 -33L43 61Q104 44 152 39Q197 31 274 31T428
53Q507 77 557 119Q613 166 645 236Q678 303 678 406Q678 541 610 612Q541 684 406 684Q328 684 264 672Q202 658 139 635L203 1335H852L823 1182H315L279 770Q299 776 371 791Q416 797 459 797Q551 797 631 772Q708 745 764 698Q818 651 850 580Z" />
<glyph unicode="6" glyph-name="six" horiz-adv-x="1075" d="M860 1440L891 1356Q775 1311 670 1253Q567 1194 496 1120Q418 1043 371 944Q321 847 299 709Q351 751 432 786Q507 817 592 817Q679 817 754 791Q831 761 883 715Q936 665 971 590Q1001 516 1001 422Q1001
324 969 244Q931 152 879 100Q820 38 737 4Q650 -31 559 -31Q454 -31 369 8Q283 44 219 117Q157 185 123 293Q88 398 88 530Q88 726 154 881Q220 1034 324 1141Q432 1252 569 1325Q711 1397 860 1440ZM649 690Q597 700 553 700Q481 700 414 676Q343 647 289 608Q287
594 287 563V516Q287 389 307 309Q325 224 362 170Q397 116 449 94Q497 70 559 70Q674 70 737 152Q803 233 803 418Q803 509 782 561Q759 620 729 647Q697 678 649 690Z" />
<glyph unicode="7" glyph-name="seven" horiz-adv-x="964" d="M909 1333L883 1202Q801 1094 721 944Q642 795 580 641Q519 490 467 313Q420 164 385 -18L178 -72Q215 84 276 256Q330 405 416 592Q507 784 578 907Q662 1062 748 1180H57L92 1333H909Z" />
<glyph unicode="8" glyph-name="eight" horiz-adv-x="1103" d="M113 197Q82 260 82 338Q82 404 109 457Q132 510 176 557Q213 599 272 637Q328 672 381 698Q334 724 295 754Q258 777 219 821Q186 862 168 909Q147 958 147 1018Q147 1093 182 1161Q219 1230 272
1272Q322 1314 401 1343Q475 1368 557 1368Q645 1368 725 1346Q800 1320 852 1280Q906 1235 936 1180Q965 1117 965 1051Q965 997 942 946Q921 903 881 858Q852 826 797 788Q750 758 700 735Q739 719 815 680Q881 641 920 602Q968 553 993 498Q1022 438 1022 358Q1022
271 987 199Q950 126 887 78Q825 27 737 0Q648 -27 549 -27Q443 -27 350 2Q264 28 203 80T113 197ZM760 137Q838 203 838 319Q838 386 813 434Q790 479 741 520Q703 552 625 590Q598 603 539 628T461 662Q376 602 326 528Q274 455 274 350Q274 215 346 143Q417
72 553 72Q683 72 760 137ZM385 1206Q326 1141 326 1047Q326 997 340 963Q354 926 389 891T477 829Q539 796 612 768Q679 816 727 879Q776 943 776 1042Q776 1147 721 1208Q665 1270 555 1270Q443 1270 385 1206Z" />
<glyph unicode="9" glyph-name="nine" horiz-adv-x="1075" d="M387 98Q511 171 596 256Q666 326 713 420Q759 514 774 631Q723 585 645 555Q566 524 483 524Q394 524 324 551Q245 578 193 629Q136 679 106 752Q74 823 74 920Q74 1015 109 1100Q142 1182 203 1243T346
1337Q430 1372 524 1372Q735 1372 862 1233Q987 1093 987 821Q987 619 922 465Q856 310 741 197Q633 87 475 10Q325 -62 150 -102L84 -27Q266 29 387 98ZM426 653Q473 641 522 641Q591 641 662 666Q725 688 784 731Q785 740 786 759T788 788V850Q788 967 770 1051Q753
1126 717 1180Q681 1230 635 1251T524 1272Q413 1272 342 1192Q272 1110 272 924Q272 835 293 780Q313 728 348 694Q386 661 426 653Z" />
<glyph unicode="A" glyph-name="A" horiz-adv-x="1345" d="M940 219L872 440H401L334 219Q322 176 322 147Q322 102 358 90Q392 75 471 72V0H33V72Q69 75 96 84T141 113Q162 133 176 164Q200 217 209 248L586 1411H768L1141 252Q1160 196 1169 176Q1182 144 1200
123Q1221 99 1245 88Q1269 75 1313 72V0H811V72Q881 75 918 94Q950 111 950 158Q950 180 948 193Q947 198 940 219ZM526 842L432 539H844L752 842Q709 986 684 1081Q645 1232 645 1233H637Q632 1214 618 1162T596 1077L526 842Z" />
<glyph unicode="B" glyph-name="B" horiz-adv-x="1243" d="M76 1411H592Q863 1411 985 1321Q1104 1233 1104 1063Q1104 953 1049 874Q990 794 846 758V750Q1017 721 1096 623Q1176 520 1176 387Q1176 284 1137 213Q1096 139 1028 92Q957 43 870 23Q780 0 682 0H76V72Q134
75 160 82Q193 92 209 109Q227 124 233 156Q240 181 240 227V1184Q240 1229 233 1257Q227 1286 209 1305Q192 1320 160 1329Q134 1336 76 1339V1411ZM852 848Q907 912 907 1040Q907 1189 848 1251Q785 1311 637 1311H434V784H645Q794 784 852 848ZM958 266Q971
319 971 399Q971 483 956 532Q940 590 907 623T813 672Q756 686 659 686H434V100H694Q779 100 829 119Q882 134 915 172Q946 209 958 266Z" />
<glyph unicode="C" glyph-name="C" horiz-adv-x="1181" d="M963 10Q867 -23 713 -23Q552 -23 436 29Q320 75 242 172Q165 262 127 397Q90 527 90 694Q90 876 135 1010Q179 1149 258 1243Q336 1338 451 1386Q562 1436 696 1436Q780 1436 844 1430Q924 1417 954
1409Q1009 1391 1038 1378Q1081 1356 1102 1339V1110H958Q932 1226 874 1284Q818 1339 690 1339Q600 1339 530 1307Q458 1272 410 1198Q360 1124 332 999Q305 884 305 698Q305 515 334 393Q360 279 416 203Q471 129 543 102Q622 74 713 74Q837 74 897 125Q958 177
979 295H1112V80Q1066 44 963 10Z" />
<glyph unicode="D" glyph-name="D" horiz-adv-x="1372" d="M76 1411H594Q748 1411 879 1370Q1005 1330 1096 1243Q1183 1156 1233 1022Q1282 891 1282 705Q1282 553 1247 422Q1210 291 1128 201Q1045 104 915 53Q782 0 594 0H76V72Q134 75 160 82Q193 92 209 109Q227
124 233 156Q240 181 240 227V1184Q240 1229 233 1257Q227 1286 209 1305Q192 1320 160 1329Q134 1336 76 1339V1411ZM1042 397Q1069 502 1069 680Q1069 854 1040 979Q1014 1097 954 1176Q896 1249 813 1282Q734 1315 618 1315H440V104H614Q730 104 815 131Q898
155 956 221Q1016 287 1042 397Z" />
<glyph unicode="E" glyph-name="E" horiz-adv-x="1157" d="M76 0V72Q134 75 160 82Q193 92 209 109Q227 124 233 156Q240 181 240 227V1184Q240 1229 233 1257Q227 1286 209 1305Q192 1320 160 1329Q134 1336 76 1339V1411H1038L1059 1104H973Q964 1141 940 1202Q926
1240 903 1266Q882 1290 852 1300Q819 1311 776 1311H434V786H625Q673 786 705 793Q732 798 758 815Q778 829 788 860Q798 887 801 932H885V543H801Q795 625 760 657Q723 688 627 688H434V100H778Q835 100 877 111Q914 120 938 147Q962 180 973 221Q985 268 991
338H1083V0H76Z" />
<glyph unicode="F" glyph-name="F" horiz-adv-x="1130" d="M434 655V233Q434 185 442 158Q448 127 469 109Q487 92 524 82Q548 76 614 72V0H76V72Q134 75 160 82Q193 92 209 109Q227 124 233 156Q240 181 240 227V1184Q240 1229 233 1257Q227 1286 209 1305Q192
1320 160 1329Q134 1336 76 1339V1411H1042L1067 1094H981Q965 1146 940 1204Q924 1239 899 1270Q881 1291 846 1303Q815 1311 766 1311H434V754H625Q670 754 705 760Q732 765 758 782Q778 798 788 827Q798 854 801 899H885V504H801Q795 586 760 623Q724 655 627
655H434Z" />
<glyph unicode="G" glyph-name="G" horiz-adv-x="1318" d="M817 1325Q765 1339 680 1339Q572 1339 502 1290Q430 1242 383 1155Q339 1071 319 948Q299 834 299 688Q299 543 319 434Q339 317 387 240Q432 158 514 115Q590 72 711 72Q863 72 944 135V469Q944 512
938 543Q931 574 911 590Q890 605 856 614Q829 621 760 625V696H1272V625Q1196 622 1165 590Q1139 557 1139 469V82Q1101 57 1042 37Q991 16 932 4Q881 -9 813 -16T696 -23Q556 -23 444 27Q330 76 254 168Q173 261 133 395Q90 525 90 698Q90 873 135 1008Q182 1149
260 1241Q337 1334 453 1386Q564 1436 696 1436Q857 1436 969 1405Q1076 1369 1130 1331V1104H987Q975 1162 956 1206Q937 1255 905 1280Q868 1311 817 1325Z" />
<glyph unicode="H" glyph-name="H" horiz-adv-x="1449" d="M434 1184V799H1016V1184Q1016 1227 1010 1257Q1004 1284 985 1305Q968 1320 936 1329Q910 1336 852 1339V1411H1374V1339Q1315 1336 1292 1329Q1259 1320 1241 1305Q1223 1286 1217 1257Q1210 1229 1210
1184V227Q1210 181 1217 156Q1223 124 1241 109Q1257 92 1292 82Q1315 75 1374 72V0H852V72Q910 75 936 82Q969 92 985 109Q1004 125 1010 156Q1016 183 1016 227V696H434V227Q434 183 440 156Q446 125 465 109Q481 92 516 82Q539 75 598 72V0H76V72Q134 75 160
82Q193 92 209 109Q227 124 233 156Q240 181 240 227V1184Q240 1229 233 1257Q227 1286 209 1305Q192 1320 160 1329Q134 1336 76 1339V1411H598V1339Q539 1336 516 1329Q483 1320 465 1305Q446 1284 440 1257Q434 1227 434 1184Z" />
<glyph unicode="I" glyph-name="I" horiz-adv-x="673" d="M434 1184V227Q434 183 440 156Q446 125 465 109Q481 92 516 82Q539 75 598 72V0H76V72Q134 75 160 82Q193 92 209 109Q227 124 233 156Q240 181 240 227V1184Q240 1229 233 1257Q227 1286 209 1305Q192
1320 160 1329Q134 1336 76 1339V1411H598V1339Q539 1336 516 1329Q483 1320 465 1305Q446 1284 440 1257Q434 1227 434 1184Z" />
<glyph unicode="J" glyph-name="J" horiz-adv-x="694" d="M444 1184V219Q444 100 426 16Q404 -71 362 -127Q316 -187 244 -225Q156 -272 57 -301L8 -225Q83 -187 139 -141Q188 -100 211 -53Q235 -3 244 57Q250 118 250 205V1184Q250 1227 244 1257Q235 1286 217
1305Q195 1320 164 1329Q140 1335 76 1339V1411H618V1339Q556 1335 532 1329Q498 1320 479 1305Q459 1287 453 1257Q444 1231 444 1184Z" />
<glyph unicode="K" glyph-name="K" horiz-adv-x="1273" d="M434 1184V227Q434 183 440 156Q446 125 465 109Q481 92 516 82Q539 75 598 72V0H76V72Q134 75 160 82Q193 92 209 109Q227 124 233 156Q240 181 240 227V1184Q240 1229 233 1257Q227 1286 209 1305Q192
1320 160 1329Q134 1336 76 1339V1411H598V1339Q539 1336 516 1329Q483 1320 465 1305Q446 1284 440 1257Q434 1227 434 1184ZM938 1130L643 799L1075 172Q1096 140 1112 127Q1129 107 1149 98Q1167 86 1194 80Q1214 76 1262 72V0H956L467 739L844 1180Q875 1217
883 1237Q893 1260 893 1278Q893 1336 782 1339V1411H1217V1339Q1182 1333 1151 1323Q1121 1310 1092 1288Q1064 1267 1026 1227L938 1130Z" />
<glyph unicode="L" glyph-name="L" horiz-adv-x="1114" d="M434 100H729Q785 100 823 113Q859 124 889 154Q914 179 934 229Q954 292 967 346H1057L1026 0H76V72Q134 75 160 82Q193 92 209 109Q227 124 233 156Q240 181 240 227V1184Q240 1229 233 1257Q227 1286
209 1305Q192 1320 160 1329Q134 1336 76 1339V1411H608V1339Q545 1336 520 1329Q483 1319 467 1303Q448 1282 442 1253Q434 1226 434 1180V100Z" />
<glyph unicode="M" glyph-name="M" horiz-adv-x="1640" d="M1552 1411V1339Q1454 1333 1421 1307Q1386 1277 1386 1219V1206Q1386 1194 1389 1184L1470 233Q1474 190 1481 160Q1487 131 1503 111Q1516 92 1546 82Q1567 75 1616 72V0H1130V72Q1219 75 1251 98Q1284
120 1284 182V195Q1284 209 1282 219L1223 969Q1219 1029 1219 1073Q1217 1112 1217 1169V1210H1204Q1201 1194 1198 1167Q1196 1158 1186 1108L1174 1047Q1171 1036 1166 1017T1157 987L850 0H727L426 942Q417 974 408 1014Q404 1031 389 1096Q384 1118 375 1167Q373
1178 371 1193T367 1212H354Q354 1165 352 1118Q351 1098 342 942L301 221V205Q299 197 299 176Q299 118 330 96Q360 75 451 72V0H25V72Q77 76 96 82Q125 91 139 109Q152 123 162 158Q169 190 172 233L242 1184Q242 1192 244 1200V1219Q244 1279 209 1309Q175 1333
78 1339V1411H473L770 483Q796 395 803 346Q805 327 810 293T817 246H829Q835 274 836 287Q840 326 844 346Q851 389 858 414Q872 465 877 481L1155 1411H1552Z" />
<glyph unicode="N" glyph-name="N" horiz-adv-x="1402" d="M1194 0H1049L537 836Q446 981 416 1059Q391 1115 365 1184H352Q360 1132 369 1051Q377 966 377 807V227Q377 183 383 156Q389 123 408 109Q425 91 459 82Q481 75 541 72V0H76V72Q134 75 160 82Q193 92
209 109Q227 124 233 156Q240 181 240 227V1184Q240 1229 233 1257Q227 1286 209 1305Q192 1320 160 1329Q134 1336 76 1339V1411H408L930 555Q935 547 951 520T975 477L1014 395Q1020 383 1030 357T1047 319Q1053 305 1060 283T1069 258H1081Q1074 305 1073 324Q1072
331 1069 366T1065 424L1059 547Q1057 590 1057 682V1184Q1057 1227 1051 1257Q1045 1284 1026 1305Q1009 1320 977 1329Q951 1336 893 1339V1411H1341V1339Q1285 1335 1266 1329Q1235 1319 1221 1305Q1203 1283 1200 1257Q1194 1227 1194 1184V0Z" />
<glyph unicode="O" glyph-name="O" horiz-adv-x="1380" d="M1257 979Q1290 850 1290 696Q1290 528 1251 401Q1213 272 1135 174Q1058 80 946 29Q836 -23 696 -23Q547 -23 432 33Q319 88 242 186Q168 277 129 418Q90 545 90 711Q90 887 133 1020Q173 1154 254 1247Q329
1338 442 1389Q555 1436 686 1436Q846 1436 963 1376Q1081 1312 1151 1214Q1224 1109 1257 979ZM1051 401Q1077 511 1077 678Q1077 842 1057 958Q1034 1085 989 1167Q942 1251 868 1296Q792 1339 686 1339Q482 1339 391 1188Q299 1033 299 733Q299 577 319 463Q342
336 387 254Q434 166 510 119Q586 70 696 70Q783 70 856 104Q926 138 975 211Q1021 279 1051 401Z" />
<glyph unicode="P" glyph-name="P" horiz-adv-x="1181" d="M434 588V233Q434 185 442 158Q448 127 469 109Q487 92 524 82Q548 76 614 72V0H76V72Q134 75 160 82Q193 92 209 109Q227 124 233 156Q240 181 240 227V1184Q240 1229 233 1257Q227 1286 209 1305Q192
1320 160 1329Q134 1336 76 1339V1411H592Q746 1411 846 1380Q946 1347 1008 1294Q1066 1241 1096 1165Q1120 1092 1120 1006Q1120 807 999 698Q880 588 645 588H434ZM850 756Q913 822 913 983Q913 1077 899 1137Q885 1194 850 1237Q817 1276 754 1294Q688 1311
596 1311H434V686H633Q786 686 850 756Z" />
<glyph unicode="Q" glyph-name="Q" horiz-adv-x="1384" d="M1042 96Q966 40 860 20Q933 2 971 -14Q1028 -40 1067 -55Q1100 -71 1159 -90Q1202 -104 1260 -104Q1319 -104 1337 -102Q1360 -100 1378 -96L1323 -236Q1315 -242 1284 -248Q1260 -256 1204 -256Q1140
-256 1087 -223Q1042 -198 973 -152Q911 -109 844 -72Q778 -34 678 -20Q526 -17 420 39Q308 95 238 193Q166 287 127 424Q90 554 90 711Q90 887 133 1020Q173 1154 254 1247Q329 1338 442 1389Q555 1436 686 1436Q846 1436 963 1376Q1081 1312 1151 1214Q1224 1109
1257 979Q1290 850 1290 696Q1290 562 1262 444Q1234 331 1178 242Q1125 156 1042 96ZM1051 401Q1077 511 1077 678Q1077 842 1057 958Q1034 1085 989 1167Q942 1251 868 1296Q792 1339 686 1339Q482 1339 391 1188Q299 1033 299 733Q299 577 319 463Q342 336 387
254Q434 166 510 119Q586 70 696 70Q783 70 856 104Q926 138 975 211Q1021 279 1051 401Z" />
<glyph unicode="R" glyph-name="R" horiz-adv-x="1251" d="M967 385L1081 190Q1099 160 1112 141Q1124 124 1147 106Q1165 91 1192 82Q1211 76 1260 72V0H956L823 260Q760 383 694 489Q668 533 639 569Q616 598 584 625Q552 646 518 655Q485 665 434 668V223Q434
141 467 109Q497 75 594 72V0H76V72Q134 75 160 82Q193 92 209 109Q227 124 233 156Q240 181 240 227V1184Q240 1229 233 1257Q227 1286 209 1305Q192 1320 160 1329Q134 1336 76 1339V1411H584Q697 1411 793 1393Q893 1369 954 1327Q1020 1279 1057 1210Q1094
1134 1094 1030Q1094 942 1061 877Q1026 807 971 766Q914 721 836 698Q759 675 664 672V664Q740 645 788 610Q836 576 870 528Q913 473 967 385ZM866 891Q887 943 887 1028Q887 1108 870 1165Q856 1218 819 1253Q786 1282 727 1298Q674 1311 596 1311H434V741H586Q659
741 709 756Q770 773 805 803Q846 837 866 891Z" />
<glyph unicode="S" glyph-name="S" horiz-adv-x="1101" d="M815 236Q831 284 831 340Q831 408 817 451Q801 497 770 526Q737 558 688 580Q634 602 567 623L426 666Q271 711 190 801Q109 885 109 1036Q109 1127 141 1198Q173 1270 231 1323Q291 1376 375 1407Q464
1436 565 1436Q718 1436 809 1403Q912 1363 952 1331V1112H819Q812 1153 793 1206Q776 1248 743 1278Q704 1310 662 1323Q609 1339 539 1339Q415 1339 346 1276Q276 1212 276 1100Q276 1043 291 1004Q307 961 336 936Q363 909 412 887Q438 874 524 846L668 803Q741
781 805 748Q865 716 913 668Q957 624 985 557Q1010 490 1010 412Q1010 206 881 92Q748 -23 502 -23Q426 -23 356 -10Q303 -3 240 16Q185 33 147 53Q109 72 82 90V344H223Q231 288 252 225Q267 180 305 141Q344 104 395 90Q451 74 530 74Q616 74 672 94Q732 117
764 152Q801 189 815 236Z" />
<glyph unicode="T" glyph-name="T" horiz-adv-x="1128" d="M670 1311V227Q670 180 680 150Q689 118 711 102Q734 85 768 80Q794 75 854 72V0H291V72Q350 75 379 80Q414 86 436 102T467 150Q475 174 475 227V1311H319Q269 1311 238 1300Q206 1289 186 1264Q168
1239 158 1196Q145 1133 141 1090H45V1411H1071L1087 1090H991Q979 1154 967 1198Q953 1243 934 1266Q912 1291 885 1300Q852 1311 809 1311H670Z" />
<glyph unicode="U" glyph-name="U" horiz-adv-x="1400" d="M406 1184V489Q406 391 422 313Q437 239 477 193Q521 143 582 123Q653 100 745 100Q915 100 987 184Q1059 270 1059 459V1184Q1059 1227 1053 1257Q1047 1284 1028 1305Q1006 1320 975 1329Q950 1335
885 1339V1411H1343V1339Q1287 1335 1268 1329Q1237 1319 1223 1305Q1205 1283 1202 1257Q1196 1227 1196 1184V459Q1196 206 1073 92Q946 -23 717 -23Q461 -23 336 96T211 444V1184Q211 1227 205 1257Q199 1285 182 1305Q164 1320 135 1329Q114 1335 57 1339V1411H580V1339Q516
1336 492 1329Q458 1320 438 1305Q418 1287 412 1257T406 1184Z" />
<glyph unicode="V" glyph-name="V" horiz-adv-x="1337" d="M406 1192L588 571Q592 558 600 526T614 475Q620 454 629 417T643 365Q659 304 670 258Q672 247 679 216T690 170H702L723 246Q723 247 733 286T750 348Q760 383 780 461Q786 483 798 521T813 571L999
1192Q1006 1212 1010 1231Q1012 1241 1012 1266Q1012 1306 979 1321Q944 1336 870 1339V1411H1305V1339Q1264 1332 1243 1325Q1214 1315 1198 1298Q1174 1278 1161 1247Q1140 1200 1128 1163L758 0H571L205 1159Q191 1203 176 1237Q160 1274 143 1292Q126 1313
98 1325Q63 1337 33 1339V1411H535V1339Q468 1336 428 1319Q395 1301 395 1253Q395 1234 406 1192Z" />
<glyph unicode="W" glyph-name="W" horiz-adv-x="1837" d="M1022 1411L1229 580Q1233 563 1242 524T1257 465Q1274 393 1280 360Q1290 307 1298 276Q1307 245 1311 221H1323Q1324 226 1326 243T1331 272Q1344 347 1346 356Q1364 457 1366 465Q1373 511 1389 580L1513
1147Q1517 1163 1522 1198Q1524 1210 1524 1231Q1524 1289 1489 1313Q1451 1336 1374 1339V1411H1802V1339Q1729 1330 1696 1284Q1660 1235 1638 1141L1376 0H1188L965 897Q957 923 950 967Q941 999 938 1036Q929 1087 928 1098Q924 1131 922 1145H913Q910 1129
907 1104Q900 1071 895 1042Q893 1031 883 971L866 897L655 0H459L197 1159Q187 1204 174 1241Q163 1272 143 1294Q125 1316 98 1325Q63 1337 33 1339V1411H526V1339Q451 1333 418 1315Q383 1297 383 1249Q383 1227 385 1221Q385 1212 389 1192L524 582Q527 567
534 533T545 479Q547 465 552 429T561 375Q567 321 573 283Q575 262 580 221H592Q601 267 602 270Q604 283 610 312T618 354L641 461Q649 500 670 582L868 1411H1022Z" />
<glyph unicode="X" glyph-name="X" horiz-adv-x="1294" d="M971 1176L735 766L1040 240Q1077 180 1092 162Q1116 131 1141 113Q1161 97 1190 86Q1221 74 1245 72V0H745V72Q858 75 858 135Q858 170 825 229L600 635H592L377 225Q348 172 348 137T379 90Q409 75
469 72V0H49V72Q70 74 106 86Q131 95 156 117Q167 128 205 172Q233 213 260 262L532 743L270 1188Q244 1233 221 1262Q200 1289 178 1305Q161 1317 133 1329Q103 1336 78 1339V1411H567V1339Q505 1336 479 1321Q453 1307 453 1278Q453 1260 463 1237Q474 1207 487
1184L668 862H676L846 1182Q877 1239 877 1274Q877 1333 768 1339V1411H1165V1339Q1134 1336 1110 1327Q1084 1317 1063 1298Q1035 1274 1018 1251Q989 1209 971 1176Z" />
<glyph unicode="Y" glyph-name="Y" horiz-adv-x="1216" d="M346 0V72Q411 76 434 82Q467 91 487 109Q504 122 514 156Q520 183 520 227V565L215 1171Q190 1222 170 1251Q154 1275 125 1300Q108 1316 78 1327Q52 1336 23 1339V1411H510V1339Q446 1336 426 1323Q401
1307 401 1278Q401 1253 410 1235Q419 1205 430 1182L653 707H662L883 1186Q907 1242 907 1274Q907 1308 877 1323Q843 1336 786 1339V1411H1194V1339Q1163 1336 1139 1327Q1112 1317 1092 1296Q1065 1271 1047 1241Q1022 1204 995 1149L715 578V227Q715 180 723
156Q729 123 750 109Q766 92 803 82Q827 76 889 72V0H346Z" />
<glyph unicode="Z" glyph-name="Z" horiz-adv-x="1062" d="M1018 1296L252 100H655Q718 100 758 115Q801 128 829 158Q855 182 879 236Q899 286 913 352H1004L973 0H49V115L815 1311H434Q330 1311 279 1255Q225 1200 195 1079H104L133 1411H1018V1296Z" />
<glyph unicode="a" glyph-name="a" horiz-adv-x="1048" d="M862 406Q860 360 860 268Q860 210 866 176Q869 145 887 119Q900 99 932 90Q962 81 1012 78V10Q985 -1 950 -6Q911 -12 870 -12Q820 -12 782 -2Q747 8 727 29Q709 45 698 74Q686 110 684 133Q667 103
647 82Q625 56 588 29Q552 2 508 -12Q463 -31 403 -31Q254 -31 166 45Q74 121 74 262Q74 356 113 418Q150 480 223 520Q292 557 391 575Q493 592 610 592H645Q668 592 682 590V680Q682 813 643 872Q602 934 496 934Q427 934 389 920Q350 905 319 879Q289 847 279
819Q266 792 258 750H129V932Q171 954 207 969Q262 992 301 1004Q350 1019 406 1028Q451 1036 512 1036Q689 1036 778 954Q868 872 868 692V627Q867 612 866 579T864 528Q862 489 862 406ZM672 236L678 492Q672 493 659 494T641 496H606Q428 496 352 444Q272 393
272 276Q272 168 315 127Q359 86 449 86Q523 86 580 131Q638 175 672 236Z" />
<glyph unicode="b" glyph-name="b" horiz-adv-x="1136" d="M365 1292V877Q417 932 494 981Q570 1030 680 1030Q855 1030 958 905Q1063 779 1063 520Q1063 264 958 123Q852 -20 659 -20Q596 -20 553 -6Q507 9 467 31Q430 50 395 82Q365 106 338 137Q338 136 328
104Q325 98 320 86T311 68Q307 57 291 31Q287 23 270 0H152Q166 35 172 88T178 240V1196Q178 1253 172 1286Q163 1320 145 1337Q128 1356 98 1362Q75 1366 23 1370V1436L309 1495H340Q349 1469 358 1415Q365 1354 365 1292ZM848 324Q862 398 862 524Q862 634 848
700Q834 767 805 817Q777 859 733 879Q687 897 629 897Q586 897 547 885Q509 874 471 854Q443 839 410 813Q380 791 365 770V221Q418 169 473 137Q532 102 621 102Q680 102 727 123Q771 143 803 193Q835 249 848 324Z" />
<glyph unicode="c" glyph-name="c" horiz-adv-x="948" d="M850 950V762H711Q695 853 659 895Q626 936 539 936Q475 936 432 915Q385 895 350 848Q314 794 297 721Q276 644 276 528Q276 409 295 322Q309 243 348 186Q383 134 436 113Q490 90 561 90Q610 90 643
98Q676 104 711 119Q753 140 770 154Q774 157 797 174T834 203L887 145Q818 67 733 23Q645 -23 532 -23Q438 -23 354 10Q267 43 209 104Q145 165 111 262Q74 357 74 487Q74 622 111 723Q142 820 209 893Q273 963 356 995Q444 1030 543 1030Q663 1030 737 1004Q818
973 850 950Z" />
<glyph unicode="d" glyph-name="d" horiz-adv-x="1161" d="M643 29Q561 -20 477 -20Q401 -20 328 8Q252 38 199 96Q143 155 109 256Q74 356 74 494Q74 607 102 713Q131 811 186 883Q235 949 317 991Q392 1030 494 1030Q574 1030 643 999Q713 969 772 907V1196Q772
1253 766 1286Q757 1320 739 1337Q722 1356 692 1362Q669 1367 616 1370V1436L915 1495H958V283Q958 228 967 195Q973 160 991 141Q1006 123 1040 117Q1064 112 1120 109V47L860 -27H829Q823 -12 803 49Q787 99 784 152Q726 74 643 29ZM293 715Q274 634 274 518Q274
400 289 319Q304 237 332 188Q358 139 406 117Q449 94 510 94Q577 94 645 135Q714 178 772 242V797Q725 856 657 885Q587 913 524 913Q470 913 420 897Q372 882 342 836Q308 790 293 715Z" />
<glyph unicode="e" glyph-name="e" horiz-adv-x="989" d="M453 121Q508 100 592 100Q658 100 735 127Q805 149 864 186L907 117Q834 59 743 18Q650 -23 543 -23Q324 -23 199 117Q74 254 74 510Q74 634 109 733Q141 830 201 899T340 1004Q422 1038 514 1038Q708
1038 817 911Q924 786 924 549V494H270Q273 380 293 307Q310 237 352 186Q395 138 453 121ZM678 862Q624 940 510 940Q458 940 416 924Q373 903 344 866Q312 824 297 760Q278 688 272 594H729Q729 785 678 862Z" />
<glyph unicode="f" glyph-name="f" horiz-adv-x="647" d="M729 1458V1288H604Q589 1395 510 1395Q451 1395 420 1352Q387 1308 387 1200V1006H635L606 893H389V213Q389 173 395 145Q401 119 422 102Q441 86 477 80Q502 74 571 70V0H59V70Q112 74 131 80Q160 86
176 102Q192 119 197 143Q203 171 203 213V893H74V958L203 1006V1198Q203 1340 293 1417Q383 1495 528 1495Q583 1495 641 1485Q680 1478 729 1458Z" />
<glyph unicode="g" glyph-name="g" horiz-adv-x="1071" d="M979 1042L1049 909Q1002 888 981 883Q939 872 905 872Q844 872 762 911Q809 876 850 819Q885 760 885 694Q885 638 864 586Q844 532 795 485Q740 435 664 410Q579 381 457 381Q401 366 367 338Q332 309
332 274Q332 223 406 223H594Q684 223 754 211Q826 196 872 164Q920 128 946 78Q971 24 971 -59Q971 -133 936 -195Q903 -254 842 -299Q780 -343 698 -365Q612 -387 520 -387Q410 -387 334 -367Q248 -346 201 -315Q147 -286 119 -242Q90 -198 90 -152Q90 -98 125
-63Q157 -30 195 -8L281 -4Q273 -15 266 -47Q258 -75 258 -111Q258 -196 313 -242Q371 -289 516 -289Q601 -289 651 -274Q713 -257 741 -233Q772 -212 788 -174Q803 -144 803 -98Q803 -51 791 -20Q777 8 743 27Q711 42 647 51Q597 56 483 59Q412 63 381 66Q327
69 301 72Q234 81 201 127Q168 171 168 231Q168 289 221 336Q272 378 358 408Q243 436 180 516Q115 596 115 698Q115 774 141 836Q170 899 219 942Q266 983 340 1010Q411 1034 500 1034Q528 1034 578 1030Q615 1027 659 1012Q728 991 739 989Q784 979 813 979Q859
979 899 997Q931 1010 979 1042ZM637 530Q684 583 684 700Q684 824 639 881T496 938Q403 938 356 885Q309 827 309 707Q309 589 358 532Q405 475 498 475Q590 475 637 530Z" />
<glyph unicode="h" glyph-name="h" horiz-adv-x="1193" d="M537 981Q613 1030 731 1030Q857 1030 932 961Q1008 889 1008 756V213Q1008 172 1014 143Q1016 121 1034 102Q1051 85 1075 80Q1093 74 1141 70V0H678V70Q734 73 756 78Q784 84 799 98Q814 115 817 137Q821
171 821 199V719Q821 810 784 850Q744 887 672 887Q584 887 516 852Q452 818 389 758V199Q389 171 393 137Q396 116 414 98Q428 84 457 78Q478 73 532 70V0H59V70Q112 74 131 80Q160 86 176 102Q192 119 197 143Q203 171 203 213V1196Q203 1253 197 1286Q186 1320
170 1337Q153 1355 123 1362Q98 1367 47 1370V1436L334 1495H365Q370 1482 381 1417Q389 1370 389 1292V862Q458 931 537 981Z" />
<glyph unicode="i" glyph-name="i" horiz-adv-x="585" d="M373 1411Q410 1369 410 1319Q410 1266 373 1229Q337 1190 283 1190Q228 1190 193 1229Q156 1265 156 1319Q156 1371 193 1411Q229 1448 283 1448Q336 1448 373 1411ZM389 1032V213Q389 181 393 143Q396
118 414 100Q430 84 457 78Q478 73 532 70V0H59V70Q112 74 131 80Q160 86 176 102Q192 119 197 143Q203 171 203 213V715Q203 770 197 805Q192 835 174 856Q155 875 127 881Q107 886 53 889V950L358 1032H389Z" />
<glyph unicode="j" glyph-name="j" horiz-adv-x="550" d="M203 25V715Q203 770 197 805Q192 835 174 856Q155 875 127 881Q107 886 53 889V950L358 1032H389V23Q389 -97 369 -164Q344 -243 309 -283Q267 -331 217 -360Q182 -381 98 -422L39 -340Q83 -320 119 -289Q151
-255 168 -215Q183 -178 195 -113Q203 -61 203 25ZM373 1411Q410 1369 410 1319Q410 1266 373 1229Q337 1190 283 1190Q228 1190 193 1229Q156 1265 156 1319Q156 1371 193 1411Q229 1448 283 1448Q336 1448 373 1411Z" />
<glyph unicode="k" glyph-name="k" horiz-adv-x="1087" d="M389 1292V199Q389 171 393 137Q396 116 414 98Q428 84 457 78Q478 73 532 70V0H59V70Q112 74 131 80Q160 86 176 102Q192 119 197 143Q203 171 203 213V1196Q203 1253 197 1286Q186 1320 170 1337Q153
1355 123 1362Q98 1367 47 1370V1436L334 1495H365Q374 1469 383 1415Q389 1362 389 1292ZM594 582L903 193Q950 134 991 104Q1033 76 1083 70V0H836L408 537L688 823Q725 860 725 887Q725 933 633 936V1006H1018V936Q958 930 905 885Q852 838 782 768L594 582Z"
/>
<glyph unicode="l" glyph-name="l" horiz-adv-x="602" d="M397 1292V219Q397 173 403 145Q407 121 424 102Q440 86 469 80Q491 74 549 70V0H59V70Q116 74 137 80Q166 86 182 102Q200 120 205 143Q211 171 211 213V1196Q211 1253 205 1286Q197 1318 178 1337Q160
1356 129 1362Q102 1367 47 1370V1436L342 1495H373Q382 1463 391 1409Q397 1354 397 1292Z" />
<glyph unicode="m" glyph-name="m" horiz-adv-x="1701" d="M963 786V199Q963 162 969 137Q972 114 987 100Q1001 86 1026 80Q1041 74 1085 70V0H643V70Q692 73 715 78Q738 84 754 98Q769 115 772 137Q776 171 776 199V719Q776 808 748 850Q719 887 651 887Q566
887 510 854Q444 815 389 768V199Q389 171 393 137Q396 114 412 98Q423 84 451 78Q472 73 522 70V0H59V70Q112 74 131 80Q160 86 176 102Q192 119 197 143Q203 171 203 213V715Q203 770 197 805Q192 835 174 856Q155 875 127 881Q107 886 53 889V950L315 1032H346Q359
998 369 956Q378 911 381 864Q458 934 526 981Q599 1030 705 1030Q787 1030 852 989Q913 950 938 870Q1019 944 1083 983Q1162 1030 1257 1030Q1370 1030 1442 961Q1516 889 1516 756V213Q1516 172 1522 143Q1524 121 1542 102Q1559 85 1583 80Q1600 74 1649 70V0H1196V70Q1245
73 1268 78Q1291 84 1307 98Q1322 115 1325 137Q1329 171 1329 199V719Q1329 809 1300 850Q1272 887 1204 887Q1128 887 1073 860Q1015 833 963 786Z" />
<glyph unicode="n" glyph-name="n" horiz-adv-x="1193" d="M1008 756V213Q1008 172 1014 143Q1016 121 1034 102Q1051 85 1075 80Q1093 74 1141 70V0H678V70Q734 73 756 78Q784 84 799 98Q814 115 817 137Q821 171 821 199V719Q821 810 784 850Q744 887 672 887Q584
887 516 852Q452 818 389 758V199Q389 171 393 137Q396 116 414 98Q428 84 457 78Q478 73 532 70V0H59V70Q112 74 131 80Q160 86 176 102Q192 119 197 143Q203 171 203 213V715Q203 770 197 805Q192 835 174 856Q155 875 127 881Q107 886 53 889V950L315 1032H346Q356
1004 369 958Q378 907 381 854Q398 874 453 924Q491 955 532 979Q581 1003 625 1016Q667 1030 731 1030Q857 1030 932 961Q1008 889 1008 756Z" />
<glyph unicode="o" glyph-name="o" horiz-adv-x="1089" d="M985 711Q1016 614 1016 496Q1016 373 981 276Q945 177 883 115Q816 45 733 12Q645 -25 545 -25T356 12Q269 46 207 117Q141 186 109 283Q74 382 74 506T109 729Q141 825 207 897Q269 965 354 1001Q439
1036 541 1036Q653 1036 743 995Q827 959 893 883Q952 809 985 711ZM750 182Q815 291 815 487Q815 725 745 829Q675 936 541 936Q464 936 412 907Q361 881 330 827Q299 777 287 698Q274 615 274 526Q274 293 336 184Q398 76 549 76Q683 76 750 182Z" />
<glyph unicode="p" glyph-name="p" horiz-adv-x="1163" d="M365 969Q377 909 379 862Q440 938 522 983Q610 1030 692 1030Q775 1030 850 1001Q923 970 975 909Q1028 844 1059 750Q1090 651 1090 522Q1090 401 1063 305Q1034 205 983 137Q930 66 852 29Q775 -10
672 -10Q595 -10 522 18Q446 47 389 106V-190Q389 -231 395 -258Q398 -282 418 -299Q433 -314 465 -322Q486 -328 549 -332V-401H59V-332Q112 -328 131 -322Q161 -314 176 -299T197 -258Q203 -231 203 -188V715Q203 770 197 805Q192 835 174 856Q155 875 127 881Q107
886 53 889V950L315 1032H346Q354 1016 365 969ZM872 291Q889 370 889 483Q889 602 877 682Q859 769 836 811Q808 857 762 879Q718 899 655 899Q581 899 518 868Q450 835 389 768V213Q437 153 504 123Q566 90 629 90Q694 90 741 109Q790 124 823 170Q857 216 872
291Z" />
<glyph unicode="q" glyph-name="q" horiz-adv-x="1114" d="M672 987Q746 945 805 872Q816 913 840 954Q858 989 883 1014H985Q974 967 969 897Q961 829 961 727V-188Q961 -231 967 -258Q972 -282 989 -299Q1004 -314 1032 -322Q1052 -328 1104 -332V-401H614V-332Q674
-329 698 -322Q727 -315 748 -299Q765 -282 770 -258Q774 -222 774 -190V139Q720 74 637 25Q563 -20 477 -20Q401 -20 328 8Q252 38 199 96Q143 155 109 256Q74 356 74 494Q74 607 102 713Q131 811 186 883Q235 949 317 991Q392 1030 494 1030T672 987ZM293 715Q274
634 274 518Q274 400 289 319Q304 237 332 188Q358 139 406 117Q449 94 510 94Q577 94 645 135Q714 178 772 242V797Q725 856 657 885Q587 913 524 913Q470 913 420 897Q372 882 342 836Q308 790 293 715Z" />
<glyph unicode="r" glyph-name="r" horiz-adv-x="745" d="M369 946Q381 884 381 799Q438 903 508 973Q576 1038 659 1038Q689 1038 721 1028L676 825Q675 825 666 828T651 834Q641 836 612 836Q553 836 506 823Q462 808 438 778Q412 749 401 696Q389 645 389 571V213Q389
172 395 143Q398 119 418 100Q437 84 471 78Q498 73 563 70V0H59V70Q112 74 131 80Q160 86 176 102Q192 119 197 143Q203 171 203 213V715Q203 770 197 805Q192 835 174 856Q155 875 127 881Q107 886 53 889V950L315 1032H346Q356 1001 369 946Z" />
<glyph unicode="s" glyph-name="s" horiz-adv-x="882" d="M700 68Q594 -25 414 -25Q353 -25 289 -14Q222 -3 193 8Q147 22 123 35Q85 55 76 61V260H213Q222 156 274 113Q323 70 432 70Q520 70 582 111Q643 150 643 248Q643 332 600 369Q546 407 467 426L346 455Q232
481 158 549Q86 615 86 739Q86 810 115 866Q142 921 193 958Q232 991 305 1016Q369 1034 444 1034Q567 1034 641 1008Q731 973 752 963V778H621Q605 861 559 901Q514 940 428 940Q335 940 289 899Q240 856 240 782Q240 719 274 680Q309 642 403 621L524 592Q668
558 737 492Q805 422 805 313Q805 160 700 68Z" />
<glyph unicode="t" glyph-name="t" horiz-adv-x="657" d="M610 1006L582 893H365V274Q365 216 371 176Q377 140 393 117Q408 95 432 86Q455 78 496 78Q553 78 612 98L629 25Q524 -29 426 -29Q309 -29 244 33Q178 96 178 248V893H55V958L193 1006Q211 1093 231
1155Q251 1224 289 1288L385 1313Q382 1289 379 1249Q377 1225 373 1171Q369 1119 369 1087Q367 1059 367 1006H610Z" />
<glyph unicode="u" glyph-name="u" horiz-adv-x="1187" d="M985 1032V283Q985 228 991 195T1016 141Q1031 123 1061 117Q1081 112 1135 109V47L887 -27H856Q839 18 827 59Q814 111 811 156Q801 145 789 133T763 108T741 86Q713 59 664 29Q630 8 575 -10Q527 -25
469 -25Q347 -25 266 41Q186 106 186 248V715Q186 770 180 805Q174 836 158 856Q140 875 115 881Q94 886 43 889V950L328 1032H373V283Q373 185 414 152Q454 117 526 117Q620 117 678 154Q732 185 799 248V715Q799 770 793 805Q786 837 770 856T727 881Q707 885
655 889V950L940 1032H985Z" />
<glyph unicode="v" glyph-name="v" horiz-adv-x="1034" d="M592 -10H451L147 793Q136 823 119 860Q105 884 88 901Q68 918 49 926Q23 934 -2 936V1006H453V936Q381 933 350 920Q322 903 322 877Q322 853 336 815L502 358Q508 338 526 279Q534 251 549 180H557Q559
199 575 256Q579 267 589 303T606 356L768 815Q776 838 778 850Q782 870 782 874Q782 903 754 920Q723 933 651 936V1006H1036V936Q1011 934 985 926Q957 914 946 903Q932 888 915 860Q908 847 887 793L592 -10Z" />
<glyph unicode="w" glyph-name="w" horiz-adv-x="1529" d="M774 766H766Q765 763 763 751T758 729L745 670Q735 630 727 596L707 518L555 -10H406L147 793Q134 835 123 860Q110 885 92 903Q78 917 55 926Q28 934 4 936V1006H442V936Q405 934 360 922Q326 911 326
872Q326 858 328 850Q328 848 331 836T336 815L459 408Q460 404 465 385T473 354Q476 345 481 325T489 295Q492 284 496 266T502 242Q505 217 508 205H516Q520 231 535 285Q546 338 565 406L729 1006H858L1053 408Q1065 371 1085 293Q1100 226 1102 205H1110L1159
406L1264 815Q1272 840 1272 868Q1272 902 1247 918Q1223 933 1157 936V1006H1526V936Q1493 933 1470 924Q1447 914 1434 901Q1415 884 1407 858Q1396 833 1382 793L1149 -10H1004L840 518Q813 599 797 674L774 766Z" />
<glyph unicode="x" glyph-name="x" horiz-adv-x="1067" d="M487 440L322 176Q301 145 301 121Q301 76 401 70V0H29V70Q69 74 84 80Q110 87 125 100Q150 123 162 139L203 199L424 526L231 807Q203 849 186 870Q163 895 147 907Q122 921 102 926Q72 934 41 936V1006H498V936Q449
933 428 924Q406 915 406 897Q406 877 434 829L567 618H575L702 829Q716 848 723 866Q727 888 727 893Q727 908 711 922Q687 933 633 936V1006H993V936Q964 933 938 926Q910 916 895 903Q873 887 856 866Q835 842 815 807L641 537L866 199L909 137Q928 113 946
100Q961 87 987 80Q1001 74 1044 70V0H590V70Q692 76 692 111Q692 128 664 176L496 440H487Z" />
<glyph unicode="y" glyph-name="y" horiz-adv-x="1034" d="M887 793L600 -33Q562 -134 535 -190Q505 -252 457 -309Q413 -359 358 -389Q309 -420 227 -436L168 -313Q233 -296 274 -281Q323 -264 362 -229Q400 -198 434 -141Q460 -95 492 4L418 -6L373 158Q340
265 311 346L147 793Q119 872 88 899Q59 927 -2 936V1006H453V936Q379 933 350 918Q322 901 322 872Q322 868 326 848Q328 841 336 815L483 401Q516 314 532 238Q550 159 555 131H561Q565 161 580 215Q591 267 621 358L768 815Q781 860 782 868Q785 887 774 905Q763
918 733 928Q713 932 651 936V1006H1036V936Q1011 934 985 926Q957 914 946 903Q928 888 915 860Q908 847 887 793Z" />
<glyph unicode="z" glyph-name="z" horiz-adv-x="911" d="M864 313L815 0H61V100L637 905H387Q332 905 301 897Q266 888 248 868Q224 845 215 809Q204 776 195 715H106V1006H840V897L270 100H498Q567 100 614 111Q661 121 686 143Q712 163 731 207Q753 255 772 313H864Z" />
</font>
</defs>
</svg>
